<svg width="24" height="24" viewBox="0 0 24 24" fill="none" xmlns="http://www.w3.org/2000/svg">
<g id="Icon">
<path d="M12.33 2.41295H3.321C2.93219 2.41295 2.617 2.09665 2.617 1.70647C2.617 1.3163 2.93219 1 3.321 1H12.33C13.0146 0.999994 13.671 1.27365 14.154 1.76046C14.637 2.24726 14.9069 2.90711 14.904 3.59409C14.939 4.21431 15.451 4.69895 16.07 4.69795H21.504C21.7786 4.66358 22.0483 4.79127 22.1964 5.0258C22.3445 5.26032 22.3445 5.55957 22.1964 5.79409C22.0483 6.02862 21.7786 6.15631 21.504 6.12194H16.07C14.6654 6.12214 13.52 4.99235 13.496 3.58305C13.49 2.93932 12.9715 2.41894 12.33 2.41295Z" fill="white"/>
<path fill-rule="evenodd" clip-rule="evenodd" d="M18.303 7.34718H13.903C13.6539 7.34718 13.452 7.14455 13.452 6.89459C13.452 5.06565 11.9745 3.583 10.152 3.583H5.752C4.49372 3.57712 3.28497 4.07462 2.39315 4.96542C1.50134 5.85622 0.999986 7.0669 1 8.32962V18.2644C1.00605 20.8773 3.11528 22.9939 5.719 23H18.303C20.8981 22.9818 22.994 20.8687 23 18.2644V12.0717C22.994 9.46924 20.8964 7.35931 18.303 7.34718ZM21.603 18.2644C21.603 20.0934 20.1255 21.576 18.303 21.576H5.697C3.87446 21.576 2.397 20.0934 2.397 18.2644V8.32962C2.397 6.50068 3.87446 5.01802 5.697 5.01802H10.097C10.5986 5.00914 11.0828 5.20292 11.4407 5.55581C11.7985 5.9087 12.0001 6.39111 12 6.89459C12.0061 7.92668 12.8415 8.76015 13.87 8.76013H18.27C20.0925 8.76013 21.57 10.2428 21.57 12.0717L21.603 18.2644Z" fill="white"/>
<path d="M12.33 2.41295H3.321C2.93219 2.41295 2.617 2.09665 2.617 1.70647C2.617 1.3163 2.93219 1 3.321 1H12.33C13.0146 0.999994 13.671 1.27365 14.154 1.76046C14.637 2.24726 14.9069 2.90711 14.904 3.59409C14.939 4.21431 15.451 4.69895 16.07 4.69795H21.504C21.7786 4.66358 22.0483 4.79127 22.1964 5.0258C22.3445 5.26032 22.3445 5.55957 22.1964 5.79409C22.0483 6.02862 21.7786 6.15631 21.504 6.12194H16.07C14.6654 6.12214 13.52 4.99235 13.496 3.58305C13.49 2.93932 12.9715 2.41894 12.33 2.41295Z" stroke="white"/>
<path d="M12.33 2.41295H3.321C2.93219 2.41295 2.617 2.09665 2.617 1.70647C2.617 1.3163 2.93219 1 3.321 1H12.33C13.0146 0.999994 13.671 1.27365 14.154 1.76046C14.637 2.24726 14.9069 2.90711 14.904 3.59409C14.939 4.21431 15.451 4.69895 16.07 4.69795H21.504C21.7786 4.66358 22.0483 4.79127 22.1964 5.0258C22.3445 5.26032 22.3445 5.55957 22.1964 5.79409C22.0483 6.02862 21.7786 6.15631 21.504 6.12194H16.07C14.6654 6.12214 13.52 4.99235 13.496 3.58305C13.49 2.93932 12.9715 2.41894 12.33 2.41295Z" stroke="black" stroke-opacity="0.2"/>
<path fill-rule="evenodd" clip-rule="evenodd" d="M18.303 7.34718H13.903C13.6539 7.34718 13.452 7.14455 13.452 6.89459C13.452 5.06565 11.9745 3.583 10.152 3.583H5.752C4.49372 3.57712 3.28497 4.07462 2.39315 4.96542C1.50134 5.85622 0.999986 7.0669 1 8.32962V18.2644C1.00605 20.8773 3.11528 22.9939 5.719 23H18.303C20.8981 22.9818 22.994 20.8687 23 18.2644V12.0717C22.994 9.46924 20.8964 7.35931 18.303 7.34718ZM21.603 18.2644C21.603 20.0934 20.1255 21.576 18.303 21.576H5.697C3.87446 21.576 2.397 20.0934 2.397 18.2644V8.32962C2.397 6.50068 3.87446 5.01802 5.697 5.01802H10.097C10.5986 5.00914 11.0828 5.20292 11.4407 5.55581C11.7985 5.9087 12.0001 6.39111 12 6.89459C12.0061 7.92668 12.8415 8.76015 13.87 8.76013H18.27C20.0925 8.76013 21.57 10.2428 21.57 12.0717L21.603 18.2644Z" stroke="white"/>
<path fill-rule="evenodd" clip-rule="evenodd" d="M18.303 7.34718H13.903C13.6539 7.34718 13.452 7.14455 13.452 6.89459C13.452 5.06565 11.9745 3.583 10.152 3.583H5.752C4.49372 3.57712 3.28497 4.07462 2.39315 4.96542C1.50134 5.85622 0.999986 7.0669 1 8.32962V18.2644C1.00605 20.8773 3.11528 22.9939 5.719 23H18.303C20.8981 22.9818 22.994 20.8687 23 18.2644V12.0717C22.994 9.46924 20.8964 7.35931 18.303 7.34718ZM21.603 18.2644C21.603 20.0934 20.1255 21.576 18.303 21.576H5.697C3.87446 21.576 2.397 20.0934 2.397 18.2644V8.32962C2.397 6.50068 3.87446 5.01802 5.697 5.01802H10.097C10.5986 5.00914 11.0828 5.20292 11.4407 5.55581C11.7985 5.9087 12.0001 6.39111 12 6.89459C12.0061 7.92668 12.8415 8.76015 13.87 8.76013H18.27C20.0925 8.76013 21.57 10.2428 21.57 12.0717L21.603 18.2644Z" stroke="black" stroke-opacity="0.2"/>
</g>
</svg>
