<svg width="22" height="22" viewBox="0 0 22 22" fill="none" xmlns="http://www.w3.org/2000/svg">
<g id="Icon">
<path fill-rule="evenodd" clip-rule="evenodd" d="M22 14.872V4.71429C22 2.11066 19.7284 0 16.9262 0H5.0738C2.27162 0 0 2.11066 0 4.71429V17.9646C0 20.1933 1.9445 22 4.34317 22H20.9852C21.5457 22 22 21.5779 22 21.0571C22 20.5364 21.5457 20.1143 20.9852 20.1143H4.34317C3.06538 20.1143 2.02952 19.1518 2.02952 17.9646C2.02952 16.7773 3.06538 15.8149 4.34317 15.8149H20.9852C21.5457 15.8149 22 15.3927 22 14.872ZM2.02952 14.5577V4.71429C2.02952 3.15211 3.39249 1.88571 5.0738 1.88571H16.9262C18.6075 1.88571 19.9705 3.15211 19.9705 4.71429V13.9291H4.34317C3.52347 13.9309 2.72115 14.1489 2.02952 14.5577Z" fill="white"/>
<path d="M3.32841 17.9646C3.32841 17.4438 3.78273 17.0217 4.34317 17.0217H19.321C19.8815 17.0217 20.3358 17.4438 20.3358 17.9646C20.3358 18.4853 19.8815 18.9074 19.321 18.9074H4.34317C3.78273 18.9074 3.32841 18.4853 3.32841 17.9646Z" fill="white"/>
</g>
</svg>
