<svg width="19" height="20" viewBox="0 0 19 20" fill="none" xmlns="http://www.w3.org/2000/svg">
<path fill-rule="evenodd" clip-rule="evenodd" d="M18.2067 1.28082C17.6783 0.78122 16.9645 0.500616 16.2203 0.5C15.5757 0.501998 14.9512 0.714188 14.4505 1.10132L5.62957 7.94025L5.48836 8.07487C4.25892 9.23693 3.98618 11.0351 4.81997 12.4816C4.4779 12.3821 4.12314 12.3277 3.7656 12.32C1.68592 12.32 0 13.9273 0 15.91V18.1538C0 18.8973 0.632219 19.5 1.4121 19.5H3.7656C5.07284 19.4932 6.28282 18.8405 6.96216 17.7757C7.6415 16.7109 7.69298 15.3864 7.09816 14.2766C7.47441 14.3977 7.86839 14.4613 8.26549 14.465C9.30814 14.4717 10.3095 14.0769 11.0426 13.3701L11.1368 13.2714L18.3573 4.86183C19.2687 3.80504 19.2039 2.26465 18.2067 1.28082ZM3.80326 18.1538H1.44976V15.91C1.44976 14.6708 2.50345 13.6663 3.80326 13.6663C5.10306 13.6663 6.15675 14.6708 6.15675 15.91C6.15675 17.1492 5.10306 18.1538 3.80326 18.1538ZM10.0824 12.4277L17.3029 4.00921C17.7455 3.48067 17.7009 2.71946 17.1993 2.24123C16.6977 1.763 15.8992 1.72046 15.3448 2.14242L6.5239 9.02622C5.53865 9.96304 5.53654 11.4839 6.51919 12.4232C7.50184 13.3625 9.09714 13.3646 10.0824 12.4277Z" fill="black"/>
<path d="M10.3836 7.78767L7.55944 10.4802C7.28413 10.743 7.28413 11.1687 7.55944 11.4315C7.8351 11.694 8.28167 11.694 8.55733 11.4315L11.3815 8.73902C11.5704 8.57121 11.6482 8.31849 11.5843 8.08C11.5204 7.8415 11.3251 7.65527 11.0749 7.59436C10.8247 7.53346 10.5597 7.60759 10.3836 7.78767Z" fill="black"/>
</svg>
