<svg width="232" height="250" viewBox="0 0 232 250" fill="none" xmlns="http://www.w3.org/2000/svg">
<path fill-rule="evenodd" clip-rule="evenodd" d="M191.634 184.568C190.652 183.637 189.105 183.638 188.149 184.554C176.687 195.172 164.562 200.518 152.148 200.546C140.06 200.573 127.8 195.413 115.722 185.295C113.038 183.086 108.878 178.5 105.205 173.096C108.204 168.91 110.182 163.94 111.136 159.143C112.544 152.059 111.408 145.524 108.947 142.27C107.583 140.469 105.836 139.357 103.802 138.882C101.197 138.278 97.6704 138.766 93.6486 142.044C88.1 146.587 86.8029 153.133 88.5418 160.363C89.4601 164.165 91.2792 168.161 93.5344 172.006C90.9855 173.959 87.8019 175.074 83.9104 174.629C75.6735 173.74 69.4416 167.175 64.9802 159.475C61.1111 152.815 56.4329 142.984 57.5713 135.214C57.9566 132.574 59.1353 130.312 56.8505 128.132C53.3521 124.758 50.207 128.191 49.6724 131.818C48.5284 139.608 51.5029 149.03 54.4189 156.251C59.7708 169.539 69.6912 181.535 82.9497 183.293C89.1651 184.089 94.4179 182.544 98.657 179.625C102.759 185.077 107.169 189.596 110.057 191.87C124.342 202.899 138.663 208.095 152.465 207.443C166.254 206.8 179.572 200.389 191.683 187.926C192.631 186.996 192.616 185.498 191.634 184.568ZM99.4458 162.531C98.5638 160.322 97.9614 158.155 97.7712 156.098C97.5339 153.481 98.0343 151.061 100.133 149.356C100.488 149.072 100.921 148.674 101.277 148.39C101.555 149.3 102.038 151.09 102.059 152.567C102.089 155.865 101.349 159.782 99.822 163.423C99.6722 163.115 99.5522 162.827 99.4458 162.531Z" fill="#D1E4CF"/>
<path fill-rule="evenodd" clip-rule="evenodd" d="M121.677 0.322652C121.921 0.454668 122.155 0.539209 122.134 0.355046C122.104 0.123395 121.943 0.158728 121.677 0.322652Z" fill="#FF7426"/>
<path fill-rule="evenodd" clip-rule="evenodd" d="M194.922 182.676C193.817 185.094 192.751 187.669 191.996 190.125C190.836 193.959 190.356 197.471 191.365 200.04C191.684 201.319 193.027 202.124 194.342 201.826C195.664 201.542 196.475 200.261 196.142 198.989C196.068 198.355 196.291 197.7 196.501 196.963C196.98 195.226 198.073 193.418 199.261 191.468C200.781 188.981 202.614 186.499 204.176 184.201C205.597 182.123 206.78 180.194 207.53 178.663C208.714 176.254 208.76 174.223 208.476 173.031C208.396 172.719 205.676 168.076 201.116 169.877C199.486 170.526 195.448 172.376 195.249 172.468C192.824 173.732 188.32 176.016 184.021 177.194C182.662 177.569 181.35 177.901 180.152 177.939C180.088 177.833 180.023 177.726 179.945 177.627C178.811 176.086 176.631 175.707 175.044 176.758C174.164 177.26 173.023 178.687 172.722 179.545C172.145 181.211 172.818 182.563 174.447 183.689C176.667 185.218 179.862 185.678 183.446 185.426C187.213 185.145 191.472 183.901 194.922 182.676ZM198.83 174.951C199.092 174.452 199.18 174.084 198.818 173.999C198.414 173.902 198.689 174.567 198.83 174.951Z" fill="#D1E4CF"/>
</svg>
