<svg width="18" height="18" viewBox="0 0 18 18" fill="none" xmlns="http://www.w3.org/2000/svg">
<path id="Icon" d="M1 8.94098L8.77639 12.8292C8.91716 12.8996 9.08284 12.8996 9.22361 12.8292L17 8.94098M1 12.941L8.77639 16.8292C8.91716 16.8996 9.08284 16.8996 9.22361 16.8292L17 12.941M8.77639 1.05279L1.89443 4.49377C1.5259 4.67803 1.5259 5.20393 1.89443 5.3882L8.77639 8.82918C8.91716 8.89956 9.08284 8.89956 9.22361 8.82918L16.1056 5.3882C16.4741 5.20393 16.4741 4.67803 16.1056 4.49377L9.22361 1.05279C9.08284 0.982405 8.91716 0.982405 8.77639 1.05279Z" stroke="white" stroke-width="2" stroke-linecap="round"/>
</svg>
