<svg width="517" height="619" viewBox="0 0 517 619" fill="none" xmlns="http://www.w3.org/2000/svg">
<path d="M257.723 618.357C400.06 618.357 515.446 611.627 515.446 603.325C515.446 595.023 400.06 588.293 257.723 588.293C115.387 588.293 0 595.023 0 603.325C0 611.627 115.387 618.357 257.723 618.357Z" fill="#CED3E6"/>
<path d="M241.655 184.718L267.687 276.001L258.399 265.747C261.833 267.504 265.819 268.852 270.214 269.791C274.609 270.746 279.413 271.292 284.431 271.531C289.449 271.787 294.68 271.736 300.036 271.531C305.392 271.309 310.855 270.934 316.406 270.473H316.442C324.627 269.808 331.834 275.626 332.527 283.475C333.186 290.965 327.652 297.585 320.054 298.78C314.325 299.65 308.506 300.486 302.545 301.151C296.567 301.817 290.446 302.312 284.111 302.448C277.776 302.585 271.211 302.346 264.413 301.407C257.634 300.469 250.606 298.763 243.737 295.93C239.342 294.105 236.211 290.658 234.787 286.614L234.449 285.659L203.221 195.894C199.716 185.81 205.392 174.89 215.926 171.529C226.442 168.167 237.83 173.61 241.335 183.711C241.442 184.018 241.566 184.394 241.655 184.718Z" fill="#EA9B7A"/>
<path d="M251.673 515.625C251.282 515.625 250.89 515.557 250.499 515.42L114.128 468.277C112.349 467.663 111.424 465.769 112.064 464.063C112.705 462.356 114.68 461.452 116.459 462.083L252.83 509.227C254.609 509.841 255.552 511.735 254.894 513.441C254.414 514.789 253.079 515.625 251.673 515.625Z" fill="#C77E2E"/>
<path d="M109.627 515.625C108.221 515.625 106.904 514.789 106.388 513.441C105.748 511.735 106.673 509.841 108.452 509.209L246.442 461.281C248.221 460.667 250.196 461.554 250.855 463.26C251.495 464.967 250.57 466.861 248.791 467.492L110.801 515.42C110.41 515.557 110.018 515.625 109.627 515.625Z" fill="#C77E2E"/>
<path d="M263.809 599.879C260.908 599.879 258.382 597.814 257.972 594.982L233.346 418.608H130.267L106.015 594.982C105.588 598.07 102.634 600.254 99.4132 599.845C96.1926 599.435 93.915 596.603 94.342 593.514L119.271 412.261C119.662 409.446 122.153 407.347 125.107 407.347H238.506C241.46 407.347 243.951 409.446 244.342 412.244L269.663 593.497C270.09 596.586 267.83 599.435 264.609 599.845C264.325 599.862 264.076 599.879 263.809 599.879Z" fill="#FAAF3A"/>
<path d="M205.659 412.978H132.011C108.684 412.978 83.7013 400.727 80.107 378.631C75.3205 349.062 74.1283 320.449 75.4629 294.173C76.9753 264.467 91.7796 236.826 116.121 218.399C116.121 218.399 130.837 279.874 112.331 364.725C119.413 396.939 205.659 412.978 205.659 412.978Z" fill="#FAAF3A"/>
<path d="M190.303 52.4333C190.303 52.4333 181.549 32.1973 158.364 36.0193C142.171 38.681 135.267 58.0297 136.21 87.9229C137.598 131.415 122.26 157.623 122.26 157.623L142.616 162.059C142.634 162.042 194.467 87.4793 190.303 52.4333Z" fill="#39393B"/>
<path d="M376.033 524.309H343.133C343.133 524.309 335.517 489.297 332.973 469.676C330.41 450.037 329.094 403.508 329.094 403.508C329.094 403.508 302.884 411.681 248.008 408.592C126.424 401.785 172.527 316.132 172.527 316.132C176.638 321.574 201.798 317.804 219.004 320.397C271.798 325.26 317.563 345.121 345.037 356.484C351.656 359.214 357.528 362.115 362.688 365.169C369.307 369.076 373.453 380.969 375.962 396.581C383.453 443.519 376.033 524.309 376.033 524.309Z" fill="#39393B"/>
<path d="M347.225 507.435C346.674 507.435 346.193 507.059 346.069 506.531C341.318 484.008 339.734 455.975 338.453 433.452C337.385 414.769 336.389 397.127 333.88 395.011C331.852 393.288 323.435 394.636 312.795 396.325C291.602 399.703 259.574 404.788 224.271 396.922C205.036 392.622 190.89 383.665 182.243 370.288C167.314 347.219 174.129 318.606 174.2 318.316C174.342 317.701 174.983 317.326 175.623 317.48C176.264 317.616 176.656 318.23 176.495 318.845C176.424 319.118 169.858 346.844 184.271 369.11C192.581 381.958 206.229 390.575 224.823 394.721C259.681 402.501 291.425 397.451 312.439 394.107C325.019 392.11 332.617 390.899 335.482 393.322C338.578 395.949 339.45 408.849 340.837 433.333C342.119 455.787 343.702 483.718 348.418 506.087C348.542 506.701 348.133 507.298 347.492 507.418C347.368 507.435 347.297 507.435 347.225 507.435Z" fill="#585859"/>
<path d="M376.656 508.032H376.638L340.054 507.281C339.396 507.264 338.88 506.752 338.898 506.121C338.916 505.489 339.45 504.995 340.108 505.012L376.692 505.762C377.35 505.779 377.866 506.291 377.848 506.923C377.83 507.537 377.297 508.032 376.656 508.032Z" fill="#585859"/>
<path d="M375.126 564.713H351.905L347.439 538.608L344.983 524.309H373.827L374.29 538.608L375.126 564.713Z" fill="#EA9B7A"/>
<path d="M375.126 564.713H351.905L348.578 545.279L347.439 538.608H374.29L374.521 545.518L375.126 564.713Z" fill="#FAAF3A"/>
<path d="M374.521 545.518L348.578 545.279L347.439 538.608H374.29L374.521 545.518Z" fill="#C77E2E"/>
<path d="M432.421 599.879H344.61C343.951 598.735 343.596 597.131 343.453 595.203C342.902 588.071 345.268 576.708 346.425 569.542C346.567 568.706 346.692 567.921 346.781 567.221C346.941 566.027 347.048 565.02 347.048 564.286C347.048 558.434 352.439 559.441 352.439 559.441C361.318 567.801 371.389 555.26 377.261 559.372C377.261 559.372 377.492 559.543 378.044 559.936C378.542 560.311 379.29 560.891 380.322 561.727C381.816 562.921 383.916 564.662 386.763 567.119C393.738 573.142 405.589 577.1 415.678 581.144C416.959 581.656 418.151 582.185 419.272 582.697C420.108 583.089 420.909 583.482 421.656 583.857C429.913 588.123 432.528 592.218 433.133 595.186C433.72 598.053 432.421 599.879 432.421 599.879Z" fill="#0875F7"/>
<path d="M421.674 583.874C419.414 585.597 414.379 589.061 410.339 589.061C410.161 589.061 409.984 589.061 409.806 589.044C406.959 588.822 396.496 583.891 387.973 579.404C383.097 576.827 378.631 574.302 375.428 572.271C370.179 568.944 369.254 567.682 369.058 566.794C368.293 563.467 374.023 561.164 378.044 559.952C378.542 560.328 379.289 560.908 380.322 561.744C375.339 563.041 371.229 565.088 371.425 566.265C371.923 567.255 377.119 571.043 389.539 577.578C399.023 582.56 408.008 586.57 410.001 586.74C412.706 586.945 416.674 584.59 419.272 582.731C420.126 583.106 420.927 583.498 421.674 583.874Z" fill="#084FC7"/>
<path d="M432.421 599.878H344.61C343.951 598.735 343.595 597.131 343.453 595.203H433.151C433.72 598.053 432.421 599.878 432.421 599.878Z" fill="#084FC7"/>
<path d="M353.56 599.878H350.944C353.542 597.029 355.98 592.644 355.66 586.399C355.233 578.073 350.037 572.476 346.407 569.541C346.549 568.705 346.674 567.921 346.763 567.221C350.66 570.07 357.226 576.332 357.742 586.297C358.08 592.268 356.033 596.722 353.56 599.878Z" fill="#084FC7"/>
<path d="M385.286 572.101C384.646 572.101 384.041 571.674 383.88 571.043C383.685 570.292 384.165 569.541 384.93 569.354L390.411 568.04C391.194 567.852 391.977 568.313 392.172 569.047C392.368 569.797 391.888 570.548 391.122 570.736L385.642 572.05C385.517 572.084 385.393 572.101 385.286 572.101Z" fill="white"/>
<path d="M379.841 567.733C379.2 567.733 378.596 567.307 378.435 566.675C378.24 565.925 378.72 565.174 379.485 564.986L384.966 563.672C385.749 563.485 386.531 563.945 386.727 564.679C386.923 565.43 386.443 566.18 385.677 566.351L380.197 567.665C380.072 567.716 379.948 567.733 379.841 567.733Z" fill="white"/>
<path d="M390.767 575.155C390.126 575.155 389.521 574.729 389.361 574.097C389.165 573.347 389.646 572.596 390.411 572.425L395.891 571.112C396.674 570.924 397.457 571.385 397.653 572.118C397.848 572.869 397.368 573.62 396.603 573.807L391.122 575.121C390.998 575.155 390.891 575.155 390.767 575.155Z" fill="white"/>
<path d="M396.247 578.107C395.588 578.107 395.001 577.68 394.841 577.049C394.645 576.298 395.126 575.548 395.891 575.36L401.371 574.046C402.154 573.858 402.937 574.319 403.133 575.053C403.329 575.804 402.848 576.554 402.083 576.725L396.603 578.039C396.496 578.09 396.371 578.107 396.247 578.107Z" fill="white"/>
<path d="M402.243 580.82C401.603 580.82 400.998 580.393 400.838 579.762C400.642 579.011 401.122 578.261 401.888 578.09L407.368 576.776C408.151 576.588 408.934 577.049 409.13 577.783C409.325 578.534 408.845 579.284 408.08 579.472L402.599 580.786C402.475 580.803 402.35 580.82 402.243 580.82Z" fill="white"/>
<path d="M408.72 583.14C408.08 583.14 407.475 582.714 407.315 582.083C407.119 581.332 407.599 580.581 408.364 580.393L413.845 579.08C414.628 578.892 415.411 579.353 415.606 580.086C415.802 580.837 415.322 581.588 414.556 581.758L409.076 583.072C408.952 583.123 408.845 583.14 408.72 583.14Z" fill="white"/>
<path d="M111.637 288.968C111.637 288.968 110.605 295.776 120.107 297.687L219.182 300.861C219.182 300.861 225.873 297.636 224.663 289.685C224.663 289.668 182.83 267.129 111.637 288.968Z" fill="#084FC7"/>
<path d="M220.534 320.38C169.111 347.509 112.954 325.67 112.954 325.67C115.694 318.486 117.741 310.382 119.217 303.011C120.926 294.428 121.887 286.853 122.331 282.877C144.2 281.734 197.83 279.533 218.844 284.31L219.004 292.381L220.534 320.38Z" fill="#EA9B7A"/>
<path d="M182.545 307.379C182.171 309.921 180.961 311.866 179.876 311.713C178.773 311.559 178.203 309.375 178.577 306.833C178.951 304.291 180.161 302.345 181.246 302.499C182.349 302.653 182.919 304.836 182.545 307.379Z" fill="#D96C63"/>
<path d="M218.986 292.381C197.082 291.101 154.004 290.658 119.2 302.994C120.908 294.411 121.869 286.836 122.314 282.86C144.182 281.717 197.812 279.516 218.826 284.293L218.986 292.381Z" fill="#D96C63"/>
<path d="M243.417 253.359C243.204 253.973 242.955 254.537 242.67 255.065C242.563 255.27 242.456 255.475 242.35 255.663C239.592 260.56 235.339 264.808 231.762 267.828C231.015 268.459 230.303 269.022 229.645 269.534C228.328 270.558 227.207 271.36 226.442 271.889C225.73 272.367 225.321 272.623 225.321 272.623C225.321 272.674 225.321 272.708 225.303 272.776C225.268 273.134 225.232 273.527 225.197 273.936C225.072 275.489 224.965 277.332 224.894 279.448C224.823 281.137 224.769 282.997 224.734 285.01C224.716 286.494 224.68 288.047 224.663 289.651C195.606 277.195 135.748 285.061 111.637 288.951C112.082 286.955 112.474 284.993 112.847 283.082C114.556 274.261 115.516 266.327 115.89 259.212C116.46 248.633 115.499 232.731 113.15 216.3C113.008 215.225 112.847 214.167 112.687 213.109C112.581 212.41 112.474 211.727 112.349 211.028C111.531 205.875 110.57 200.705 109.484 195.688C104.734 173.815 108.061 150.866 131.193 148.153C132.865 147.948 134.52 147.777 136.139 147.607C147.029 146.498 155.997 146.105 158.488 146.02C158.951 146.003 159.182 146.003 159.182 146.003L203.88 158.458L208.132 159.636C210.57 160.386 212.83 161.12 214.93 161.837C215.819 162.144 216.691 162.451 217.51 162.741C219.68 163.526 221.638 164.277 223.435 165.045C227.011 166.563 229.841 168.047 232.083 169.566C241.887 176.237 240.374 183.779 240.125 198.674C240.125 198.743 240.125 198.811 240.125 198.879C240.125 199.067 240.125 199.255 240.125 199.459C240.125 199.545 240.125 199.63 240.125 199.715C240.125 200.329 240.125 200.927 240.125 201.541C240.143 203.469 240.214 205.38 240.339 207.291C240.499 210.106 240.766 212.904 241.086 215.634C241.211 216.726 241.335 217.818 241.478 218.91C241.602 219.934 241.745 220.941 241.887 221.947C243.631 234.983 245.855 246.415 243.417 253.359Z" fill="#0875F7"/>
<path d="M240.107 198.879C240.107 199.067 240.107 199.255 240.107 199.459C240.107 199.545 240.107 199.63 240.107 199.715C240.107 200.329 240.107 200.927 240.107 201.541L230.712 207.188C230.428 207.359 230.107 207.41 229.787 207.359C229.431 207.308 229.111 207.103 228.897 206.796C228.506 206.199 228.702 205.431 229.307 205.056L239.271 199.067C239.52 198.913 239.823 198.862 240.107 198.879Z" fill="#084FC7"/>
<path d="M178.186 247.131C177.83 247.131 177.474 246.995 177.207 246.722C176.726 246.21 176.762 245.408 177.296 244.947L186.033 237.406C186.566 236.945 187.403 236.979 187.883 237.491C188.364 238.003 188.328 238.805 187.794 239.266L179.057 246.807C178.808 247.012 178.488 247.131 178.186 247.131Z" fill="#084FC7"/>
<path d="M241.851 221.948L235.873 227.117C235.624 227.339 235.303 227.442 235.001 227.442C234.645 227.442 234.289 227.305 234.022 227.032C233.542 226.52 233.577 225.718 234.111 225.258L241.442 218.927C241.567 219.934 241.709 220.941 241.851 221.948Z" fill="#084FC7"/>
<path d="M160.463 216.794C160.267 216.504 160.179 216.146 160.267 215.788C160.428 215.105 161.139 214.696 161.851 214.849L173.292 217.443C174.004 217.596 174.431 218.279 174.271 218.961C174.111 219.644 173.399 220.053 172.687 219.9L161.246 217.306C160.908 217.238 160.641 217.05 160.463 216.794Z" fill="#084FC7"/>
<path d="M119.627 238.328C119.271 238.328 118.915 238.191 118.648 237.918C118.168 237.406 118.203 236.604 118.737 236.144L127.474 228.602C128.008 228.141 128.844 228.175 129.324 228.687C129.805 229.199 129.769 230.001 129.235 230.462L120.499 238.003C120.25 238.225 119.947 238.328 119.627 238.328Z" fill="#084FC7"/>
<path d="M221.335 236.536C221.442 236.212 221.709 235.922 222.047 235.785C222.705 235.512 223.488 235.802 223.773 236.433L228.47 246.773C228.755 247.405 228.453 248.155 227.794 248.428C227.136 248.701 226.353 248.411 226.068 247.78L221.371 237.44C221.246 237.133 221.246 236.809 221.335 236.536Z" fill="#084FC7"/>
<path d="M243.417 253.359C243.203 253.973 242.954 254.536 242.67 255.065C242.563 255.27 242.456 255.475 242.349 255.663L235.961 253.735C235.641 253.632 235.392 253.427 235.232 253.171C235.054 252.881 234.983 252.506 235.107 252.165C235.321 251.499 236.068 251.141 236.744 251.346L243.417 253.359Z" fill="#084FC7"/>
<path d="M207.332 254.264C207.687 254.23 208.061 254.332 208.346 254.588C208.88 255.049 208.915 255.851 208.435 256.362L200.534 264.706C200.054 265.218 199.218 265.252 198.684 264.791C198.15 264.33 198.114 263.529 198.595 263.017L206.495 254.673C206.727 254.434 207.029 254.298 207.332 254.264Z" fill="#084FC7"/>
<path d="M202.688 235.017C202.332 234.966 202.011 234.761 201.798 234.454C201.406 233.874 201.602 233.089 202.207 232.714L212.172 226.725C212.777 226.349 213.595 226.537 213.986 227.117C214.378 227.697 214.182 228.482 213.577 228.858L203.613 234.846C203.328 235.017 202.99 235.068 202.688 235.017Z" fill="#084FC7"/>
<path d="M209.04 198.709C209.271 198.965 209.413 199.306 209.36 199.681C209.289 200.364 208.63 200.875 207.919 200.79L196.228 199.562C195.517 199.493 194.983 198.862 195.072 198.18C195.143 197.497 195.801 196.985 196.513 197.071L208.203 198.299C208.524 198.333 208.826 198.487 209.04 198.709Z" fill="#084FC7"/>
<path d="M192.047 174.395C192.136 174.053 192.367 173.763 192.705 173.593C193.346 173.269 194.147 173.49 194.485 174.105L200.054 184.035C200.392 184.649 200.161 185.417 199.52 185.741C198.88 186.065 198.079 185.843 197.741 185.229L192.171 175.299C191.994 175.009 191.958 174.685 192.047 174.395Z" fill="#084FC7"/>
<path d="M231.78 267.845C231.033 268.476 230.321 269.04 229.662 269.551L228.132 265.798C228.008 265.491 228.008 265.183 228.132 264.893C228.257 264.569 228.524 264.296 228.88 264.16C229.556 263.904 230.321 264.228 230.588 264.876L231.78 267.845Z" fill="#084FC7"/>
<path d="M124.306 248.736C124.129 248.428 124.093 248.07 124.235 247.712C124.484 247.063 125.232 246.722 125.908 246.961L136.976 250.783C137.652 251.022 138.008 251.739 137.758 252.387C137.509 253.035 136.762 253.377 136.086 253.138L125.018 249.316C124.698 249.23 124.449 249.009 124.306 248.736Z" fill="#084FC7"/>
<path d="M129.716 263.085C130.072 263.085 130.427 263.238 130.694 263.511C131.175 264.023 131.121 264.825 130.588 265.286L121.78 272.759C121.246 273.22 120.41 273.169 119.929 272.657C119.449 272.145 119.502 271.343 120.036 270.882L128.844 263.409C129.093 263.187 129.413 263.085 129.716 263.085Z" fill="#084FC7"/>
<path d="M145.677 274.943C145.89 275.216 146.015 275.574 145.943 275.933C145.819 276.615 145.143 277.076 144.431 276.956L132.847 275.062C132.136 274.943 131.655 274.295 131.78 273.612C131.904 272.93 132.58 272.469 133.292 272.588L144.876 274.482C145.196 274.534 145.481 274.704 145.677 274.943Z" fill="#084FC7"/>
<path d="M155.374 169.395C155.285 169.071 155.321 168.696 155.534 168.389C155.926 167.809 156.744 167.638 157.349 168.013L167.225 174.122C167.83 174.497 168.008 175.282 167.616 175.862C167.225 176.442 166.406 176.613 165.801 176.238L155.926 170.129C155.641 169.942 155.445 169.686 155.374 169.395Z" fill="#084FC7"/>
<path d="M222.776 176.596C223.097 176.425 223.47 176.391 223.844 176.51C224.52 176.749 224.876 177.466 224.645 178.114L220.712 188.744C220.463 189.393 219.716 189.734 219.04 189.512C218.364 189.273 218.008 188.556 218.239 187.908L222.171 177.278C222.278 176.988 222.509 176.749 222.776 176.596Z" fill="#084FC7"/>
<path d="M217.492 162.758L211.424 170.232C210.979 170.778 210.161 170.88 209.591 170.453C209.022 170.027 208.915 169.242 209.36 168.696L214.912 161.871C215.801 162.144 216.673 162.451 217.492 162.758Z" fill="#084FC7"/>
<path d="M158.114 265.866C158.239 266.224 158.559 266.48 158.915 266.548C159.093 266.583 159.289 266.583 159.467 266.514C159.662 266.446 178.684 260.543 198.684 268.494C208.844 272.537 217.883 274.073 225.196 273.936C225.232 273.527 225.267 273.152 225.303 272.776C225.303 272.725 225.321 272.674 225.321 272.64C225.321 272.64 225.73 272.384 226.442 271.906C219.253 272.247 210.054 270.78 199.502 266.6C178.737 258.341 159.591 264.313 158.79 264.569C158.239 264.757 157.936 265.337 158.114 265.866Z" fill="#084FC7"/>
<path d="M203.862 158.458C201.353 162.178 196.193 166.392 185.73 165.676C171.299 164.669 161.798 151.463 158.488 146.037C158.933 146.02 159.182 146.02 159.182 146.02L203.862 158.458Z" fill="#084FC7"/>
<path d="M188.524 182.96C188.951 183.045 189.378 183.097 189.805 183.131C193.791 183.438 197.029 182.329 199.413 179.838C206.353 172.569 203.506 155.985 203.381 155.285C203.274 154.722 202.723 154.347 202.153 154.449C201.566 154.551 201.175 155.08 201.282 155.626C201.317 155.797 204.075 171.921 197.847 178.456C195.908 180.486 193.328 181.356 190 181.1C176.015 180.025 160.338 145.952 160.178 145.611C159.947 145.099 159.306 144.86 158.773 145.082C158.239 145.304 157.99 145.918 158.221 146.43C158.826 147.846 173.701 180.077 188.524 182.96Z" fill="white"/>
<path d="M232.082 169.566C231.157 179.394 233.684 195.62 240.303 207.291C240.143 204.783 240.072 202.241 240.107 199.715C240.107 199.63 240.107 199.545 240.107 199.459C240.107 199.203 240.125 198.948 240.125 198.692C240.356 183.796 241.869 176.238 232.082 169.566Z" fill="#EA9B7A"/>
<path d="M149.858 186.867C144.734 205.841 125.979 221.06 113.168 216.317C113.008 215.259 112.865 214.184 112.705 213.126C112.598 212.427 112.492 211.744 112.367 211.045C111.548 205.892 110.588 200.722 109.502 195.705C104.751 173.832 108.097 150.883 131.21 148.17C132.883 147.965 134.538 147.794 136.157 147.624C147.705 152.35 155.766 165.027 149.858 186.867Z" fill="#EA9B7A"/>
<path d="M152.492 172.398L182.527 277.741L171.815 265.9C175.783 267.913 180.374 269.483 185.463 270.575C190.534 271.667 196.086 272.299 201.869 272.589C207.67 272.879 213.702 272.827 219.876 272.589C226.05 272.35 232.367 271.906 238.773 271.377H238.809C248.257 270.609 256.567 277.315 257.367 286.375C258.132 295.009 251.744 302.67 242.954 304.035C236.353 305.041 229.627 305.997 222.741 306.764C215.855 307.532 208.791 308.095 201.46 308.266C194.146 308.42 186.566 308.164 178.737 307.072C170.926 305.98 162.812 304.035 154.876 300.741C149.805 298.643 146.193 294.65 144.556 289.992L144.182 288.9L108.132 185.298C104.075 173.661 110.641 161.069 122.776 157.179C134.911 153.289 148.043 159.585 152.1 171.221C152.26 171.597 152.385 172.04 152.492 172.398Z" fill="#EA9B7A"/>
<path d="M165.944 274.38C165.641 274.38 165.339 274.226 165.178 273.953C164.929 273.544 165.089 273.032 165.516 272.793C165.801 272.64 172.367 269.091 179.235 268.579C179.734 268.545 180.161 268.886 180.196 269.364C180.232 269.841 179.876 270.251 179.378 270.285C172.919 270.763 166.46 274.243 166.406 274.278C166.246 274.346 166.086 274.38 165.944 274.38Z" fill="#D96C63"/>
<path d="M176.869 270.575C176.709 270.575 176.549 270.541 176.406 270.456C172.26 268.05 167.242 267.674 167.189 267.674C166.691 267.64 166.335 267.231 166.371 266.77C166.406 266.292 166.815 265.951 167.314 265.985C167.527 266.002 172.812 266.378 177.314 269.005C177.741 269.244 177.865 269.773 177.616 270.183C177.456 270.421 177.154 270.575 176.869 270.575Z" fill="#D96C63"/>
<path d="M203.648 215.054C216.94 217.631 222.759 204.459 222.812 204.322C223.043 203.793 222.776 203.196 222.225 202.991C221.673 202.77 221.05 203.025 220.837 203.554C220.623 204.049 215.606 215.293 204.075 213.058C191.958 210.704 169.36 187.857 169.146 187.618C168.737 187.209 168.061 187.192 167.634 187.584C167.207 187.976 167.189 188.625 167.598 189.034C168.524 189.973 190.89 212.563 203.648 215.054Z" fill="#084FC7"/>
<path d="M182.758 132.08C182.758 132.08 161.424 128.224 155.41 107.579C149.68 87.9229 154.093 77.7196 160.054 67.1069C164.538 59.1046 178.773 48.3042 198.719 52.1773C218.862 56.0846 233.933 66.0149 236.157 81.8999C240.303 111.623 215.303 147.88 182.758 132.08Z" fill="#39393B"/>
<path d="M156.406 110.769C156.015 110.769 155.641 110.582 155.445 110.223C155.054 109.575 146.086 94.0993 153.541 73.7268C158.203 60.9983 167.367 55.3166 174.253 52.7743C181.691 50.0272 187.936 50.3002 188.203 50.3002C188.808 50.3344 189.289 50.8291 189.253 51.4263C189.218 52.0064 188.719 52.4671 188.097 52.433C188.043 52.433 181.976 52.1941 174.965 54.7876C165.641 58.2513 159.146 64.8544 155.641 74.4264C148.541 93.8433 157.296 109.012 157.385 109.165C157.687 109.677 157.509 110.326 156.976 110.616C156.78 110.718 156.602 110.769 156.406 110.769Z" fill="#FAAF3A"/>
<path d="M224.129 111.094C224.129 111.094 231.068 105.838 232.901 112.8C234.734 119.761 229.573 132.132 221.495 128.378L224.129 111.094Z" fill="#D96C63"/>
<path d="M217.349 123.89C213.897 124.982 210.855 127.917 210.072 131.551C208.933 136.977 212.598 142.266 218.239 143.376C223.897 144.468 229.413 140.953 230.57 135.544C231.424 131.483 229.591 127.491 226.228 125.289C225.107 124.539 223.808 124.01 222.385 123.737C222.349 123.737 222.314 123.72 222.278 123.72C222.082 124.402 222.154 124.948 222.563 125.375C223.702 125.665 224.734 126.16 225.641 126.808C228.257 128.719 229.662 131.944 228.969 135.237C228.008 139.81 223.328 142.778 218.559 141.857C213.791 140.936 210.694 136.448 211.655 131.876C212.367 128.548 214.929 126.194 218.15 125.443L217.349 123.89Z" fill="#FAAF3A"/>
<path d="M203.097 140.936L200.196 158.373C200.196 158.373 186.584 171.699 161.726 147.795C168.399 143.034 170.943 131.978 170.16 124.846C170.16 124.846 172.118 125.972 175.143 128.6C175.73 129.112 176.495 129.504 177.225 129.999C183.79 134.264 193.862 139.844 203.097 140.936Z" fill="#EA9B7A"/>
<path d="M203.097 140.936L201.727 149.194C194.271 146.003 181.086 139.195 175.143 128.583C175.783 129.026 176.495 129.487 177.225 129.982C183.791 134.264 193.862 139.844 203.097 140.936Z" fill="#39393B"/>
<path d="M230.855 106.896C230.463 108.739 230.107 110.496 229.734 112.169C229.342 113.977 228.969 115.683 228.595 117.287C225.837 129.35 223.577 135.817 219.912 138.24C201.353 150.474 171.157 125.699 170.178 124.897C170.161 124.88 170.161 124.88 170.161 124.88C170.143 123.464 170.143 122.048 170.161 120.666C170.392 108.927 172.474 98.3821 175.783 88.6395C177.438 77.9926 186.05 69.4615 197.136 67.8576C208.63 66.2026 217.278 72.5839 222.687 75.3992C230.855 79.6648 234.058 91.5231 230.855 106.896Z" fill="#EA9B7A"/>
<path d="M176.424 77.6854C176.424 77.6854 189.413 53.7299 215.321 60.4183C241.228 67.1068 242.599 78.6409 243.061 84.408C243.524 90.1751 229.645 79.9547 229.645 79.9547C229.645 79.9547 229.164 91.4889 224.538 87.9399C218.862 83.5719 212.527 74.1706 212.527 74.1706C212.527 74.1706 197.1 88.7077 182.438 84.7834C174.093 82.5652 176.424 77.6854 176.424 77.6854Z" fill="#39393B"/>
<path d="M208.239 130.391C204.876 130.391 202.563 128.156 202.456 128.036C202.1 127.678 202.1 127.115 202.474 126.774C202.848 126.433 203.417 126.433 203.773 126.791C203.897 126.91 206.566 129.453 210.09 128.292C210.57 128.139 211.104 128.378 211.264 128.838C211.424 129.299 211.175 129.811 210.695 129.965C209.84 130.272 209.022 130.391 208.239 130.391Z" fill="#D96C63"/>
<path d="M200.499 115.888C200.499 115.888 212.99 119.437 219.467 119.437C219.467 119.437 216.228 128.31 206.976 125.204C199.769 122.781 200.499 115.888 200.499 115.888Z" fill="white"/>
<path d="M223.684 90.943C223.684 90.943 220.445 90.6188 220.961 93.6388C221.495 96.6589 228.524 94.8161 232.011 100.856C232.011 100.856 235.374 94.5261 223.684 90.943Z" fill="#39393B"/>
<path d="M209.253 88.1446C209.253 88.1446 212.367 89.066 210.659 91.6424C208.951 94.2188 203.221 89.902 197.563 94.1676C197.563 94.1676 197.047 87.0867 209.253 88.1446Z" fill="#39393B"/>
<path d="M203.63 109.763C203.328 111.179 200.036 111.742 196.246 111.008C192.474 110.275 189.662 108.534 189.965 107.101C190.267 105.685 193.559 105.122 197.349 105.855C201.122 106.589 203.933 108.346 203.63 109.763Z" fill="#D96C63"/>
<path d="M240.499 110.701L230.41 109.046C230.356 109.456 230.25 109.865 230.161 110.258C230.143 110.326 230.125 110.394 230.09 110.462L240.25 112.117C240.659 112.186 241.05 111.913 241.122 111.52C241.193 111.145 240.926 110.769 240.499 110.701Z" fill="white"/>
<path d="M213.559 102.443C213.559 101.948 213.541 101.453 213.47 100.976C213.132 98.348 211.922 95.9251 210.072 94.0483C208.363 92.325 206.139 91.0623 203.559 90.5163C203.524 90.4993 203.47 90.4993 203.435 90.4822C197.527 89.322 191.709 92.2908 189.306 97.3413C189.093 97.7849 188.915 98.2285 188.755 98.6892C188.612 99.0987 188.506 99.5253 188.399 99.9518C187.723 103.125 188.381 106.265 190.036 108.824C190.605 109.694 191.282 110.496 192.047 111.196C193.719 112.749 195.837 113.875 198.274 114.352C202.385 115.171 206.424 113.977 209.324 111.486C211.282 109.814 212.723 107.527 213.292 104.883C213.292 104.866 213.292 104.866 213.292 104.849C213.47 104.047 213.559 103.245 213.559 102.443ZM198.595 112.936C198.524 112.919 198.47 112.919 198.417 112.902C195.232 112.22 192.652 110.275 191.139 107.732C189.84 105.531 189.324 102.904 189.894 100.242C190.018 99.6959 190.178 99.167 190.374 98.6551C190.392 98.621 190.41 98.5868 190.41 98.5527C191.993 94.6113 195.854 91.9325 200.196 91.6936C201.157 91.6425 202.136 91.6936 203.132 91.8984C205.267 92.3249 207.118 93.2975 208.595 94.6454C211.299 97.1195 212.652 100.839 211.851 104.593C210.57 110.394 204.645 114.148 198.595 112.936Z" fill="white"/>
<path d="M236.175 97.4609C235.837 97.2903 235.481 97.1367 235.107 96.9832C234.68 96.8125 234.235 96.676 233.791 96.5395C233.47 96.4542 233.168 96.3689 232.83 96.3177C232.225 96.1983 231.638 96.1301 231.05 96.0959C230.339 96.0447 229.627 96.0618 228.933 96.1471C226.993 96.3519 225.161 96.9661 223.541 97.9387C221.762 98.9965 220.25 100.481 219.218 102.272C218.933 102.733 218.702 103.211 218.488 103.689C218.47 103.723 218.47 103.74 218.452 103.774C218.186 104.422 217.972 105.105 217.812 105.804C216.798 110.514 218.773 115.155 222.492 117.919C223.702 118.823 225.089 119.523 226.62 119.949C226.851 120.017 227.082 120.086 227.331 120.12C227.456 120.154 227.563 120.171 227.687 120.205C228.915 120.444 230.143 120.512 231.335 120.41C231.531 120.393 231.727 120.376 231.904 120.359C232.42 120.29 232.936 120.205 233.453 120.069C234.396 119.83 235.321 119.488 236.175 119.062C239.431 117.424 241.922 114.455 242.723 110.735C243.88 105.275 241.05 99.9179 236.175 97.4609ZM241.228 110.428C241.175 110.667 241.122 110.889 241.05 111.111C240.961 111.435 240.855 111.742 240.73 112.066C239.84 114.336 238.203 116.178 236.139 117.39C235.392 117.833 234.573 118.192 233.719 118.465C233.186 118.635 232.652 118.755 232.082 118.84C231.922 118.874 231.762 118.891 231.602 118.908C230.428 119.045 229.2 119.011 227.972 118.772C227.865 118.755 227.741 118.721 227.634 118.704C227.563 118.686 227.492 118.669 227.438 118.652C225.641 118.209 224.04 117.356 222.741 116.212C222.545 116.042 222.367 115.871 222.189 115.701C219.716 113.244 218.506 109.678 219.271 106.077C219.449 105.275 219.716 104.491 220.054 103.774C221.175 101.419 223.132 99.5937 225.499 98.5188C226.958 97.8534 228.577 97.495 230.25 97.495C230.517 97.495 230.783 97.5121 231.068 97.5292C231.549 97.5633 232.029 97.6315 232.509 97.7169C232.865 97.7851 233.203 97.8704 233.541 97.9728C234.004 98.1093 234.449 98.2799 234.894 98.4676C235.232 98.6212 235.57 98.7918 235.908 98.9624C239.947 101.232 242.225 105.787 241.228 110.428Z" fill="white"/>
<path d="M173.221 99.5421C173.132 99.5251 173.043 99.4909 172.972 99.4397C172.616 99.2179 172.527 98.7743 172.741 98.4501C177.794 90.8744 189.947 97.6823 190.054 97.7506C190.41 97.9553 190.534 98.399 190.321 98.7402C190.107 99.0815 189.645 99.2009 189.289 98.9961C189.182 98.9279 178.274 92.8366 174.004 99.235C173.844 99.4739 173.524 99.5933 173.221 99.5421Z" fill="white"/>
<path d="M219.022 104.098C218.826 104.064 218.666 103.944 218.541 103.791C216.922 101.402 213.47 102.477 213.435 102.477C213.043 102.596 212.616 102.392 212.492 102.016C212.367 101.641 212.58 101.231 212.972 101.112C214.556 100.6 218.025 100.344 219.823 103.006C220.054 103.347 219.947 103.791 219.591 103.996C219.413 104.098 219.218 104.132 219.022 104.098Z" fill="white"/>
<g opacity="0.8">
<g opacity="0.8">
<g opacity="0.8">
<g opacity="0.8">
<g opacity="0.8">
<g opacity="0.8">
<g opacity="0.8">
<path opacity="0.8" d="M229.734 112.168C229.342 113.977 228.968 115.683 228.595 117.287C225.161 116.485 222.687 114.864 222.972 113.516C223.274 112.185 226.228 111.605 229.734 112.168Z" fill="#D96C63"/>
</g>
</g>
</g>
</g>
</g>
</g>
</g>
<path d="M206.282 102.613C205.872 104.576 204.609 105.975 203.47 105.753C202.331 105.531 201.744 103.774 202.153 101.812C202.563 99.8493 203.826 98.4502 204.965 98.672C206.104 98.8939 206.691 100.651 206.282 102.613Z" fill="#39393B"/>
<path d="M226.459 106.538C226.05 108.5 224.787 109.899 223.648 109.677C222.509 109.455 221.922 107.698 222.331 105.736C222.741 103.774 224.004 102.375 225.143 102.596C226.282 102.818 226.869 104.576 226.459 106.538Z" fill="#39393B"/>
<path d="M216.032 111.793C217.011 111.98 217.705 111.946 217.758 111.946C217.99 111.929 218.221 111.827 218.381 111.656C218.541 111.486 218.595 111.247 218.577 111.025L217.278 101.897C217.207 101.453 216.78 101.129 216.317 101.197C215.854 101.265 215.516 101.675 215.587 102.118L216.744 110.257C215.89 110.138 214.609 109.797 213.452 108.875C213.096 108.585 212.545 108.636 212.242 108.978C211.94 109.319 211.993 109.848 212.349 110.138C213.612 111.127 214.983 111.588 216.032 111.793Z" fill="#39393B"/>
<path d="M178.506 118.243C178.363 118.447 174.413 123.89 170.196 124.88C170.178 124.863 170.178 124.863 170.178 124.863C170.143 123.447 170.16 122.031 170.178 120.648C170.321 120.666 174.342 120.768 178.506 118.243Z" fill="#39393B"/>
<path d="M177.634 103.944C177.634 103.944 171.691 91.8641 163.986 98.945C157.634 104.797 163.186 124.317 174.218 120.136L177.634 103.944Z" fill="#EA9B7A"/>
<path d="M163.025 114.369C159.573 115.461 156.531 118.396 155.748 122.03C154.609 127.456 158.274 132.745 163.915 133.855C169.573 134.947 175.089 131.432 176.246 126.023C177.1 121.962 175.267 117.97 171.904 115.768C170.783 115.018 169.484 114.489 168.061 114.216C168.025 114.216 167.99 114.199 167.954 114.199C167.758 114.881 167.847 115.427 168.239 115.854C169.378 116.144 170.41 116.639 171.317 117.287C173.933 119.198 175.339 122.423 174.645 125.716C173.684 130.289 169.004 133.257 164.235 132.336C159.467 131.415 156.37 126.927 157.331 122.355C158.025 119.027 160.605 116.673 163.826 115.922L163.025 114.369Z" fill="#FAAF3A"/>
<path d="M173.755 116.775C173.791 116.775 173.808 116.793 173.844 116.793C174.307 116.827 174.734 116.502 174.769 116.042C175.641 106.913 168.452 102.29 168.15 102.102C167.759 101.846 167.225 101.965 166.958 102.341C166.691 102.716 166.815 103.228 167.207 103.484C167.474 103.655 173.844 107.784 173.061 115.905C173.043 116.315 173.346 116.69 173.755 116.775Z" fill="#39393B"/>
<path d="M166.958 110.377C167.136 110.411 167.349 110.394 167.527 110.292C168.381 109.865 170.89 108.91 172.26 109.541C172.687 109.746 173.203 109.575 173.399 109.165C173.612 108.756 173.434 108.261 173.007 108.073C170.623 106.964 167.136 108.654 166.744 108.841C166.317 109.046 166.157 109.541 166.388 109.95C166.495 110.172 166.726 110.326 166.958 110.377Z" fill="#39393B"/>
<path d="M185.285 83.4527C185.285 83.4527 177.296 104.252 176.869 108.449C176.282 114.165 168.399 94.5773 176.317 77.8562L185.285 83.4527Z" fill="#39393B"/>
<path d="M318.773 524.412H285.873C285.873 524.412 278.257 489.4 275.713 469.778C273.15 450.139 271.834 403.61 271.834 403.61C271.834 403.61 245.624 411.783 190.748 408.695C69.164 401.887 115.267 316.234 115.267 316.234C119.378 321.677 150.196 329.167 167.385 331.778C220.179 336.641 260.303 345.24 287.777 356.604C294.396 359.334 300.268 362.234 305.428 365.288C312.047 369.196 316.193 381.088 318.702 396.7C326.193 443.639 318.773 524.412 318.773 524.412Z" fill="#39393B"/>
<path d="M289.948 507.554C289.396 507.554 288.916 507.179 288.791 506.65C284.04 484.128 282.456 456.094 281.175 433.572C280.108 414.889 279.111 397.246 276.602 395.131C274.574 393.407 266.157 394.755 255.517 396.444C234.325 399.823 202.296 404.907 166.993 397.042C147.759 392.742 133.613 383.784 124.965 370.407C110.036 347.339 116.851 318.725 116.922 318.435C117.065 317.821 117.705 317.446 118.346 317.599C118.986 317.736 119.378 318.35 119.218 318.964C119.146 319.237 112.581 346.964 126.993 369.23C135.303 382.078 148.951 390.694 167.545 394.841C202.403 402.621 234.147 397.571 255.161 394.226C267.741 392.23 275.339 391.019 278.204 393.441C281.3 396.069 282.172 408.968 283.56 433.453C284.841 455.907 286.424 483.838 291.14 506.207C291.264 506.821 290.855 507.418 290.214 507.537C290.108 507.537 290.037 507.554 289.948 507.554Z" fill="#585859"/>
<path d="M319.396 508.134H319.378L282.794 507.383C282.136 507.366 281.62 506.855 281.638 506.223C281.656 505.592 282.189 505.097 282.848 505.114L319.432 505.865C320.09 505.882 320.606 506.394 320.588 507.025C320.553 507.656 320.037 508.134 319.396 508.134Z" fill="#585859"/>
<path d="M317.866 564.833H294.645L290.179 538.71L287.723 524.412H316.567L317.03 538.71L317.866 564.833Z" fill="#EA9B7A"/>
<path d="M317.866 564.833H294.645L291.318 545.382L290.179 538.71H317.03L317.243 545.62L317.866 564.833Z" fill="#FAAF3A"/>
<path d="M317.243 545.62L291.318 545.382L290.179 538.71H317.03L317.243 545.62Z" fill="#C77E2E"/>
<path d="M375.161 599.998H287.332C286.674 598.855 286.318 597.251 286.175 595.323C285.624 588.191 287.99 576.828 289.147 569.661C289.289 568.825 289.414 568.04 289.503 567.341C289.663 566.147 289.77 565.14 289.77 564.406C289.77 558.554 295.161 559.56 295.161 559.56C304.04 567.921 314.111 555.397 319.983 559.492C319.983 559.492 320.215 559.663 320.766 560.055C321.264 560.431 322.012 561.011 323.044 561.847C324.538 563.041 326.638 564.782 329.485 567.239C336.46 573.262 348.311 577.22 358.4 581.264C359.681 581.776 360.873 582.288 361.994 582.816C362.83 583.209 363.631 583.601 364.378 583.977C372.635 588.242 375.25 592.337 375.855 595.306C376.443 598.155 375.161 599.998 375.161 599.998Z" fill="#0875F7"/>
<path d="M364.396 583.994C362.136 585.717 357.101 589.181 353.062 589.181C352.884 589.181 352.706 589.181 352.528 589.164C349.681 588.942 339.218 584.011 330.695 579.523C325.82 576.947 321.353 574.422 318.15 572.391C312.901 569.064 311.976 567.802 311.78 566.914C311.015 563.587 316.745 561.284 320.766 560.072C321.264 560.448 322.012 561.028 323.044 561.864C318.061 563.161 313.951 565.208 314.147 566.368C314.645 567.358 319.841 571.146 332.261 577.681C341.745 582.663 350.731 586.672 352.724 586.843C355.428 587.048 359.396 584.693 361.994 582.833C362.866 583.209 363.649 583.601 364.396 583.994Z" fill="#084FC7"/>
<path d="M375.161 599.998H287.332C286.674 598.855 286.318 597.251 286.175 595.323H375.873C376.442 598.155 375.161 599.998 375.161 599.998Z" fill="#084FC7"/>
<path d="M296.3 599.998H293.684C296.282 597.149 298.72 592.764 298.4 586.519C297.973 578.192 292.777 572.596 289.147 569.661C289.289 568.825 289.414 568.04 289.503 567.341C293.4 570.19 299.965 576.452 300.482 586.417C300.802 592.388 298.756 596.842 296.3 599.998Z" fill="#084FC7"/>
<path d="M328.026 572.221C327.386 572.221 326.781 571.794 326.62 571.163C326.425 570.412 326.905 569.661 327.67 569.474L333.151 568.16C333.934 567.972 334.717 568.433 334.912 569.167C335.108 569.917 334.628 570.668 333.862 570.856L328.382 572.17C328.257 572.204 328.133 572.221 328.026 572.221Z" fill="white"/>
<path d="M322.563 567.836C321.905 567.836 321.318 567.409 321.158 566.778C320.962 566.027 321.442 565.276 322.207 565.089L327.688 563.775C328.471 563.587 329.254 564.048 329.449 564.782C329.645 565.532 329.165 566.283 328.4 566.471L322.919 567.784C322.795 567.819 322.688 567.836 322.563 567.836Z" fill="white"/>
<path d="M333.506 575.275C332.866 575.275 332.261 574.848 332.101 574.217C331.905 573.466 332.385 572.716 333.15 572.545L338.631 571.231C339.414 571.043 340.197 571.504 340.392 572.238C340.588 572.989 340.108 573.739 339.343 573.927L333.862 575.241C333.738 575.258 333.613 575.275 333.506 575.275Z" fill="white"/>
<path d="M338.987 578.21C338.346 578.21 337.741 577.783 337.581 577.152C337.385 576.401 337.866 575.65 338.631 575.48L344.111 574.166C344.894 573.978 345.677 574.439 345.873 575.173C346.069 575.923 345.588 576.674 344.823 576.862L339.343 578.176C339.218 578.193 339.111 578.21 338.987 578.21Z" fill="white"/>
<path d="M344.966 580.922C344.325 580.922 343.72 580.496 343.56 579.865C343.364 579.114 343.845 578.363 344.61 578.192L350.09 576.879C350.873 576.691 351.656 577.152 351.852 577.885C352.047 578.636 351.567 579.387 350.802 579.574L345.321 580.888C345.197 580.922 345.09 580.922 344.966 580.922Z" fill="white"/>
<path d="M351.46 583.243C350.802 583.243 350.215 582.816 350.055 582.185C349.859 581.434 350.339 580.684 351.104 580.496L356.585 579.182C357.368 578.994 358.151 579.455 358.346 580.189C358.542 580.94 358.062 581.69 357.297 581.878L351.816 583.192C351.692 583.226 351.567 583.243 351.46 583.243Z" fill="white"/>
<path d="M439.948 314.972V321.967C439.948 325.994 437.421 329.253 434.289 329.253H40.2135C37.0819 329.253 34.5552 325.994 34.5552 321.967V314.972C34.5552 310.945 37.0819 307.686 40.2135 307.686H434.272C437.403 307.686 439.948 310.945 439.948 314.972Z" fill="#21B573"/>
<path d="M439.948 317.19H34.5552V320.397H439.948V317.19Z" fill="#217C58"/>
<path d="M428.097 347.219H57.6868C56.032 347.219 54.6797 345.923 54.6797 344.336V329.15H431.104V344.336C431.104 345.923 429.752 347.219 428.097 347.219Z" fill="#217C58"/>
<path d="M411.46 436.353H80.1958V448.74H411.46V436.353Z" fill="#217C58"/>
<path d="M56.3168 602.199L120.445 347.219H97.9183L33.79 602.199H56.3168Z" fill="#21B573"/>
<path d="M434.912 602.199L370.766 347.219H393.293L457.421 602.199H434.912Z" fill="#21B573"/>
<path d="M70.5194 249.086L63.5718 250.107L71.6025 300.385L78.5501 299.364L70.5194 249.086Z" fill="#FAAF3A"/>
<path d="M70.5335 249.06L63.594 250.083L65.1242 244.999L65.9072 242.354L67.4908 244.641L70.5335 249.06Z" fill="#EA9B7A"/>
<path d="M77.9599 295.704L71.0122 296.725L71.5968 300.385L78.5445 299.364L77.9599 295.704Z" fill="#39393B"/>
<path d="M78.5767 302.311L72.5446 303.199C72.2955 303.233 72.0464 303.062 72.0108 302.823L71.6194 300.349L78.5767 299.325L78.9682 301.8C79.0037 302.055 78.8258 302.277 78.5767 302.311Z" fill="#DF615C"/>
<path d="M67.4913 244.641L65.1248 244.999L65.9077 242.354L67.4913 244.641Z" fill="#39393B"/>
<path d="M77.5666 293.077L70.6189 294.097L71.0365 296.712L77.9841 295.691L77.5666 293.077Z" fill="#C77E2E"/>
<path d="M65.7118 252.302L71.6549 289.532C71.7083 289.822 71.9752 290.009 72.2599 289.958C72.5446 289.907 72.7581 289.651 72.7047 289.378L66.7616 252.148C66.7083 251.875 66.4414 251.67 66.1567 251.721C65.872 251.756 65.6584 252.029 65.7118 252.302Z" fill="#C77E2E"/>
<path d="M68.4342 251.909L74.3773 289.139C74.4307 289.412 74.6976 289.617 74.9823 289.566C75.2848 289.514 75.4805 289.258 75.4271 288.985L69.4841 251.755C69.4307 251.482 69.1638 251.278 68.8791 251.329C68.5944 251.363 68.3809 251.619 68.4342 251.909Z" fill="#C77E2E"/>
<path d="M83.1164 249.29L76.0879 249.312L76.2623 300.175L83.2908 300.152L83.1164 249.29Z" fill="#21B573"/>
<path d="M83.1139 249.299L76.0854 249.316L78.3808 244.504L79.573 241.996L80.783 244.487L83.1139 249.299Z" fill="#EA9B7A"/>
<path d="M83.2685 296.467L76.24 296.49L76.2527 300.192L83.2812 300.17L83.2685 296.467Z" fill="#39393B"/>
<path d="M82.8293 303.096L76.7261 303.113C76.4592 303.113 76.2634 302.908 76.2634 302.67V300.178L83.2919 300.161V302.652C83.2919 302.891 83.0962 303.096 82.8293 303.096Z" fill="#DF615C"/>
<path d="M80.783 244.487L78.3809 244.504L79.573 241.996L80.783 244.487Z" fill="#39393B"/>
<path d="M83.2526 293.805L76.2241 293.828L76.2332 296.472L83.2617 296.45L83.2526 293.805Z" fill="#217C58"/>
<path d="M77.8291 251.824L77.9537 289.48C77.9537 289.77 78.2028 289.992 78.4875 289.992C78.79 289.992 79.0213 289.753 79.0213 289.48L78.8967 251.824C78.8967 251.534 78.6476 251.312 78.3629 251.312C78.0782 251.295 77.8291 251.534 77.8291 251.824Z" fill="#217C58"/>
<path d="M80.5872 251.807L80.7117 289.463C80.7117 289.753 80.9608 289.975 81.2455 289.975C81.548 289.975 81.7793 289.736 81.7793 289.463L81.6548 251.807C81.6548 251.517 81.4057 251.295 81.121 251.295C80.8363 251.295 80.5872 251.517 80.5872 251.807Z" fill="#217C58"/>
<path d="M88.3013 249.037L80.8435 299.397L87.8024 300.344L95.2603 249.985L88.3013 249.037Z" fill="#0875F7"/>
<path d="M95.2493 250.015L88.292 249.06L91.2813 244.606L92.8472 242.303L93.6657 244.931L95.2493 250.015Z" fill="#EA9B7A"/>
<path d="M88.3617 296.724L81.4028 295.777L80.8599 299.443L87.8189 300.39L88.3617 296.724Z" fill="#39393B"/>
<path d="M86.9041 303.216L80.8721 302.397C80.6229 302.362 80.445 302.141 80.4806 301.885L80.8543 299.411L87.8116 300.366L87.4379 302.84C87.3845 303.079 87.1532 303.25 86.9041 303.216Z" fill="#DF615C"/>
<path d="M93.6656 244.931L91.2812 244.606L92.8471 242.303L93.6656 244.931Z" fill="#39393B"/>
<path d="M81.7801 293.129L81.3921 295.748L88.351 296.696L88.7391 294.078L81.7801 293.129Z" fill="#084FC7"/>
<path d="M89.6442 251.773L84.1282 289.054C84.0926 289.344 84.2883 289.6 84.5908 289.634C84.8933 289.668 85.1602 289.481 85.1958 289.19L90.7118 251.909C90.7474 251.619 90.5517 251.363 90.2492 251.329C89.9645 251.295 89.6976 251.5 89.6442 251.773Z" fill="#084FC7"/>
<path d="M92.3844 252.148L86.8684 289.43C86.8328 289.72 87.0286 289.976 87.3311 290.01C87.6336 290.044 87.9005 289.856 87.936 289.566L93.4521 252.285C93.4877 251.995 93.2919 251.739 92.9894 251.705C92.6869 251.671 92.42 251.858 92.3844 252.148Z" fill="#084FC7"/>
<path d="M97.5447 269.415L97.171 272.145L96.8329 274.619L96.3347 278.373L95.9966 280.83L95.4984 284.618L95.1603 287.04L94.6443 290.862L94.324 293.251L93.808 297.107L93.4877 299.462L92.9717 303.352L92.6514 305.673L92.3845 307.686H64.7332L64.4663 305.673L64.146 303.352L63.63 299.462L63.3097 297.107L62.7937 293.251L62.4734 290.862L61.9574 287.04L61.6371 284.618L61.1211 280.83L60.8008 278.373L60.2848 274.619L59.9467 272.145L59.5908 269.415H97.5447Z" fill="#DF615C"/>
<path d="M97.1711 272.145L96.833 274.619H60.2848L59.9468 272.145H97.1711Z" fill="#B11722"/>
<path d="M96.3347 278.373L95.9966 280.83H61.1211L60.8008 278.373H96.3347Z" fill="#B11722"/>
<path d="M95.4985 284.618L95.1604 287.041H61.9575L61.6372 284.618H95.4985Z" fill="#B11722"/>
<path d="M94.6443 290.862L94.324 293.251H62.7937L62.4734 290.862H94.6443Z" fill="#B11722"/>
<path d="M93.8081 297.107L93.4878 299.462H63.6301L63.3098 297.107H93.8081Z" fill="#B11722"/>
<path d="M92.9717 303.352L92.6514 305.673H64.4663L64.146 303.352H92.9717Z" fill="#B11722"/>
<path d="M437.652 172.467L414.076 268.084L413.453 270.593L411.869 277.025C411.175 279.823 408.595 281.785 405.606 281.785H246.762C242.598 281.785 239.538 278.066 240.499 274.193L266.282 169.618C266.976 166.836 269.556 164.874 272.545 164.874H431.371C435.535 164.874 438.595 168.594 437.652 172.467Z" fill="#39393B"/>
<path d="M414.058 268.067L413.453 270.592H248.524V268.067H414.058Z" fill="#585859"/>
<path d="M310.766 188.522C309.449 195.296 302.652 200.79 295.588 200.79C288.524 200.79 283.862 195.296 285.179 188.522C286.495 181.749 293.292 176.255 300.357 176.255C307.438 176.255 312.083 181.749 310.766 188.522Z" fill="#FAAF3A"/>
<path d="M296.317 186.185C296.051 187.533 295.339 188.642 294.734 188.642C294.111 188.642 293.826 187.55 294.093 186.185C294.36 184.837 295.072 183.728 295.677 183.728C296.3 183.728 296.584 184.82 296.317 186.185Z" fill="#39393B"/>
<path d="M302.99 186.185C302.723 187.533 302.011 188.642 301.406 188.642C300.801 188.642 300.499 187.55 300.766 186.185C301.033 184.837 301.744 183.728 302.349 183.728C302.972 183.728 303.257 184.82 302.99 186.185Z" fill="#39393B"/>
<path d="M296.922 194.511C291.424 194.511 291.193 189.239 291.193 189.188C291.175 188.898 291.424 188.608 291.744 188.557C292.065 188.488 292.314 188.676 292.332 188.966C292.332 189.154 292.545 193.453 297.154 193.453C301.744 193.453 303.631 189.154 303.72 188.966C303.844 188.676 304.182 188.505 304.467 188.557C304.752 188.625 304.894 188.898 304.769 189.188C304.716 189.222 302.421 194.511 296.922 194.511Z" fill="#39393B"/>
<path d="M384.2 245.818C384.343 252.165 395.553 260.116 395.553 260.116C395.553 260.116 408.577 252.165 410.161 245.818C411.869 238.942 403.684 236.826 397.617 242.013C392.723 236.826 384.04 238.942 384.2 245.818Z" fill="#DF615C"/>
<path d="M360.464 227.407C359.698 233.993 353.524 239.317 346.674 239.317C339.823 239.317 334.859 233.976 335.624 227.407C336.389 220.821 342.563 215.498 349.414 215.498C356.282 215.498 361.229 220.838 360.464 227.407Z" fill="#585859"/>
<path d="M278.844 164.874L251.389 281.785H246.762C242.598 281.785 239.538 278.066 240.499 274.192L266.282 169.617C266.976 166.836 269.556 164.857 272.545 164.857H278.844V164.874Z" fill="#585859"/>
<path d="M324.841 281.785L320.019 307.771H335.944L340.766 281.785H324.841Z" fill="white"/>
<path d="M296.211 303.301L299.467 298.916C300.623 297.346 302.51 296.425 304.52 296.425H348.15C350.463 296.425 352.581 297.653 353.649 299.615L355.837 303.642C356.869 305.519 355.446 307.788 353.221 307.788H298.613C296.211 307.771 294.823 305.161 296.211 303.301Z" fill="white"/>
<path d="M205.303 307.754H336.371L337.794 303.011C338.684 300.025 336.353 297.056 333.115 297.056H212.171C210.001 297.056 208.097 298.438 207.492 300.434L205.303 307.754Z" fill="white"/>
<path d="M377.154 133.65L319.182 133.616C316.94 133.616 315.107 131.859 315.107 129.709L315.125 95.5498C315.125 93.4 316.958 91.6426 319.2 91.6426L377.172 91.6767C379.414 91.6767 381.246 93.4341 381.246 95.584L381.229 129.743C381.229 131.91 379.414 133.65 377.154 133.65Z" fill="#DF615C"/>
<path d="M373.702 127.354L368.417 146.498L359.182 128.497L373.702 127.354Z" fill="#DF615C"/>
<path d="M362.83 109.558C361.655 116.724 347.687 125.699 347.687 125.699C347.687 125.699 334.253 116.707 333.488 109.524C332.652 101.743 342.26 99.3717 348.292 105.241C354.645 99.3888 364.111 101.778 362.83 109.558Z" fill="white"/>
<path d="M418.234 580.571C472.755 580.571 516.953 576.385 516.953 571.221C516.953 566.057 472.755 561.871 418.234 561.871C363.713 561.871 319.515 566.057 319.515 571.221C319.515 576.385 363.713 580.571 418.234 580.571Z" fill="#CED3E6"/>
<path d="M478.679 503.603H354.052C351.686 503.603 349.764 501.76 349.764 499.491V497.597C349.764 495.328 351.686 493.485 354.052 493.485H478.679C481.045 493.485 482.967 495.328 482.967 497.597V499.491C482.967 501.76 481.045 503.603 478.679 503.603Z" fill="#39393B"/>
<path d="M355.618 381.402H477.38C479.408 381.402 481.045 382.972 481.045 384.917V399.267C481.045 401.212 479.408 402.781 477.38 402.781H355.618C353.589 402.781 351.952 401.212 351.952 399.267V384.917C351.952 382.972 353.589 381.402 355.618 381.402Z" fill="#585859"/>
<path d="M384.373 290.46C384.373 290.46 333.038 280.735 318.714 246.388C304.39 212.042 356.775 186.278 384.373 204.722C413.91 224.446 384.373 290.46 384.373 290.46Z" fill="#21B573"/>
<path d="M414.907 380.703C414.462 380.703 414.052 380.379 413.981 379.935C409.07 348.029 389.23 302.131 373.483 269.252C356.383 233.592 340.262 205.132 340.102 204.842C339.853 204.415 340.031 203.869 340.476 203.63C340.921 203.391 341.49 203.562 341.739 203.988C341.899 204.279 358.056 232.79 375.191 268.501C391.01 301.5 410.903 347.568 415.85 379.679C415.921 380.174 415.583 380.618 415.067 380.686C414.996 380.686 414.942 380.703 414.907 380.703Z" fill="#39393B"/>
<path d="M382.451 287.134C382.113 287.134 381.792 286.963 381.632 286.673C359.301 246.798 323.038 217.86 322.682 217.57C322.291 217.263 322.237 216.7 322.557 216.325C322.878 215.949 323.465 215.898 323.856 216.205C324.23 216.495 360.76 245.638 383.269 285.837C383.518 286.263 383.34 286.809 382.896 287.048C382.735 287.099 382.593 287.134 382.451 287.134Z" fill="#39393B"/>
<path d="M383.465 290C383.198 290 382.949 289.897 382.753 289.693C366.472 271.316 349.782 259.885 338.661 253.537C326.597 246.661 318.287 244.085 318.216 244.068C317.735 243.914 317.451 243.419 317.611 242.942C317.771 242.481 318.287 242.208 318.785 242.362C319.123 242.464 327.344 244.989 339.568 251.968C350.832 258.383 367.718 269.951 384.177 288.532C384.515 288.908 384.462 289.471 384.07 289.795C383.892 289.931 383.661 290 383.465 290Z" fill="#39393B"/>
<path d="M378.945 279.541C378.554 279.541 378.198 279.302 378.074 278.944C365.547 243.71 370.155 200.9 370.209 200.474C370.262 199.979 370.725 199.638 371.223 199.689C371.739 199.74 372.095 200.184 372.041 200.661C371.988 201.088 367.433 243.522 379.817 278.363C379.977 278.824 379.728 279.336 379.23 279.49C379.141 279.524 379.034 279.541 378.945 279.541Z" fill="#39393B"/>
<path d="M382.095 286.519C381.65 286.519 381.259 286.212 381.187 285.768C377.362 263.468 380.298 245.279 383.447 233.95C386.864 221.648 391.134 214.721 391.312 214.43C391.579 214.004 392.148 213.867 392.593 214.123C393.038 214.379 393.18 214.925 392.913 215.352C392.878 215.42 388.572 222.399 385.227 234.496C382.148 245.638 379.266 263.553 383.02 285.495C383.109 285.973 382.753 286.434 382.255 286.519C382.184 286.502 382.13 286.519 382.095 286.519Z" fill="#39393B"/>
<path d="M438.519 299.435C438.519 299.435 490.369 292.627 506.793 259.168C523.216 225.691 472.504 197.01 443.821 213.85C413.109 231.868 438.519 299.435 438.519 299.435Z" fill="#21B573"/>
<path d="M418.857 377.785C418.34 377.785 417.913 377.376 417.931 376.881C418.127 360.45 421.864 341.733 429.034 321.258C434.764 304.895 442.664 287.372 452.558 269.184C469.373 238.215 486.312 215.71 486.49 215.488C486.793 215.096 487.38 214.993 487.789 215.284C488.198 215.574 488.305 216.137 488.003 216.529C487.842 216.751 470.974 239.171 454.212 270.02C438.768 298.463 420.262 340.078 419.817 376.898C419.782 377.393 419.373 377.785 418.857 377.785Z" fill="#39393B"/>
<path d="M440.707 296.228C440.547 296.228 440.369 296.193 440.227 296.091C439.782 295.835 439.657 295.289 439.924 294.863C464.871 256.012 503.145 228.985 503.536 228.712C503.946 228.422 504.533 228.507 504.835 228.899C505.138 229.292 505.049 229.855 504.64 230.145C504.266 230.418 466.277 257.24 441.526 295.784C441.33 296.074 441.027 296.228 440.707 296.228Z" fill="#39393B"/>
<path d="M439.515 299.025C439.284 299.025 439.052 298.94 438.875 298.787C438.501 298.445 438.483 297.882 438.839 297.524C456.437 279.899 473.999 269.32 485.636 263.553C498.27 257.291 506.615 255.226 506.971 255.141C507.469 255.022 507.967 255.312 508.092 255.789C508.216 256.267 507.914 256.745 507.416 256.864C507.327 256.881 498.875 258.98 486.419 265.157C474.924 270.856 457.576 281.332 440.173 298.752C440.013 298.923 439.764 299.025 439.515 299.025Z" fill="#39393B"/>
<path d="M444.675 288.839C444.551 288.839 444.444 288.822 444.319 288.771C443.839 288.583 443.625 288.072 443.803 287.611C458.323 253.52 456.383 210.916 456.366 210.489C456.348 209.994 456.739 209.585 457.255 209.551C457.753 209.517 458.198 209.909 458.234 210.404C458.252 210.83 460.209 253.827 445.547 288.293C445.387 288.635 445.049 288.839 444.675 288.839Z" fill="#39393B"/>
<path d="M441.099 295.63C441.027 295.63 440.956 295.63 440.885 295.613C440.387 295.511 440.066 295.033 440.191 294.555C445.316 272.852 443.536 254.817 441.152 243.522C438.554 231.271 434.711 224.054 434.675 223.968C434.444 223.525 434.622 222.996 435.066 222.774C435.529 222.552 436.081 222.723 436.312 223.149C436.472 223.439 440.298 230.605 442.949 243.095C445.387 254.595 447.202 272.92 442.006 294.948C441.917 295.34 441.526 295.63 441.099 295.63Z" fill="#39393B"/>
<path d="M418.554 234.666C418.554 234.666 374.622 207.401 374.568 170.409C374.515 133.418 433.127 128.095 451.65 155.019C471.49 183.838 418.554 234.666 418.554 234.666Z" fill="#21B573"/>
<path d="M412.415 329.38C412.344 329.38 412.273 329.38 412.202 329.362C411.703 329.243 411.401 328.765 411.508 328.288C419.266 296.91 418.572 247.224 416.632 211.086C414.533 171.894 410.529 139.714 410.493 139.407C410.44 138.912 410.796 138.469 411.312 138.418C411.81 138.366 412.29 138.708 412.344 139.203C412.379 139.527 416.383 171.758 418.5 211.001C420.458 247.258 421.134 297.115 413.34 328.697C413.216 329.107 412.842 329.38 412.415 329.38Z" fill="#39393B"/>
<path d="M418.394 230.964C417.931 230.964 417.522 230.622 417.468 230.179C412.13 185.202 389.621 145.447 389.39 145.055C389.141 144.628 389.301 144.082 389.764 143.843C390.209 143.604 390.778 143.758 391.027 144.202C391.258 144.594 413.945 184.656 419.319 229.991C419.372 230.486 419.017 230.93 418.501 230.981C418.465 230.964 418.429 230.964 418.394 230.964Z" fill="#39393B"/>
<path d="M418.234 233.967C417.842 233.967 417.486 233.728 417.362 233.352C409.337 210.489 398.251 193.955 390.369 184.11C381.828 173.429 375.102 168.106 375.031 168.055C374.639 167.748 374.568 167.185 374.906 166.809C375.226 166.434 375.814 166.366 376.205 166.69C376.49 166.912 383.127 172.167 391.792 182.984C399.782 192.949 410.992 209.67 419.106 232.789C419.266 233.25 419.017 233.762 418.518 233.915C418.429 233.95 418.34 233.967 418.234 233.967Z" fill="#39393B"/>
<path d="M418.074 222.654C418.056 222.654 418.038 222.654 418.02 222.654C417.504 222.637 417.113 222.211 417.148 221.716C419.123 184.554 439.942 146.42 440.138 146.027C440.387 145.584 440.938 145.43 441.401 145.652C441.864 145.874 442.024 146.42 441.793 146.863C441.579 147.239 420.956 185.032 419.017 221.801C418.981 222.279 418.572 222.654 418.074 222.654Z" fill="#39393B"/>
<path d="M418.305 230.247C418.234 230.247 418.18 230.247 418.109 230.23C417.611 230.128 417.291 229.65 417.397 229.172C422.451 207.093 432.237 191.123 439.568 181.602C447.522 171.263 454.177 166.229 454.462 166.024C454.871 165.717 455.458 165.786 455.761 166.178C456.081 166.57 456.01 167.133 455.6 167.423C455.529 167.475 448.821 172.559 441.01 182.711C433.803 192.079 424.177 207.81 419.212 229.548C419.124 229.974 418.732 230.247 418.305 230.247Z" fill="#39393B"/>
<path d="M472.237 324.602L470.707 328.492L469.746 330.966L466.971 338.03L465.992 340.504L463.145 347.773L462.184 350.23L449.942 381.385H383.074L370.832 350.23L369.871 347.773L367.024 340.504L366.045 338.03L363.269 330.966L362.308 328.492L360.778 324.602C359.728 321.923 361.792 319.074 364.764 319.074H468.269C471.223 319.074 473.287 321.923 472.237 324.602Z" fill="#0875F7"/>
<path d="M470.707 328.492L469.746 330.966H363.269L362.291 328.492H470.707Z" fill="#084FC7"/>
<path d="M466.953 338.03L465.992 340.504H367.006L366.045 338.03H466.953Z" fill="#084FC7"/>
<path d="M463.127 347.773L462.166 350.23H370.832L369.871 347.773H463.127Z" fill="#084FC7"/>
<path d="M398.59 402.764L394.889 414.23L343.269 573.763H333.18L365.903 417.489L368.999 402.764H398.59Z" fill="#39393B"/>
<path d="M500.12 573.763H490.031L436.899 409.504L434.711 402.764H464.302L465.049 406.348L500.12 573.763Z" fill="#39393B"/>
<path d="M478.679 481.61H354.052C351.686 481.61 349.764 479.767 349.764 477.498V475.604C349.764 473.334 351.686 471.492 354.052 471.492H478.661C481.028 471.492 482.949 473.334 482.949 475.604V477.498C482.967 479.767 481.045 481.61 478.679 481.61Z" fill="#585859"/>
<path d="M321.703 98.0598C348.354 98.0598 369.959 77.6023 369.959 52.3668C369.959 27.1313 348.354 6.67383 321.703 6.67383C295.051 6.67383 273.446 27.1313 273.446 52.3668C273.446 77.6023 295.051 98.0598 321.703 98.0598Z" fill="#CED3E6"/>
<path d="M321.703 92.122C348.354 92.122 369.959 71.6646 369.959 46.4291C369.959 21.1935 348.354 0.736084 321.703 0.736084C295.051 0.736084 273.446 21.1935 273.446 46.4291C273.446 71.6646 295.051 92.122 321.703 92.122Z" fill="#0875F7"/>
<path d="M321.703 83.5739C343.362 83.5739 360.92 66.9436 360.92 46.4292C360.92 25.9147 343.362 9.28442 321.703 9.28442C300.044 9.28442 282.486 25.9147 282.486 46.4292C282.486 66.9436 300.044 83.5739 321.703 83.5739Z" fill="white"/>
<path d="M360.92 46.4292C360.92 47.4188 360.884 48.3913 360.795 49.3639C359.212 30.2541 342.272 15.1539 321.685 15.1539C301.098 15.1539 284.176 30.2541 282.574 49.3639C282.503 48.3913 282.45 47.4188 282.45 46.4292C282.45 25.9373 300.048 9.28442 321.667 9.28442C343.322 9.28442 360.92 25.9373 360.92 46.4292Z" fill="#CED3E6"/>
<path d="M321.703 50.2852C321.4 50.2852 321.098 50.1487 320.92 49.9098L301.685 25.3741C301.365 24.9646 301.454 24.3845 301.881 24.0774C302.308 23.7703 302.93 23.8556 303.251 24.2651L322.023 48.2036L343.358 39.3311C343.856 39.1264 344.425 39.3311 344.657 39.8089C344.87 40.2866 344.657 40.8326 344.158 41.0374L322.112 50.1999C321.97 50.2681 321.827 50.2852 321.703 50.2852Z" fill="#39393B"/>
</svg>
