<svg width="24" height="24" viewBox="0 0 24 24" fill="none" xmlns="http://www.w3.org/2000/svg">
<path id="Icon" d="M7 22C7 22.5523 7.44772 23 8 23C8.55228 23 9 22.5523 9 22H7ZM8.21115 13.5777L7.31672 13.1305L8.21115 13.5777ZM11.5528 6.89443L12.4472 7.34164L11.5528 6.89443ZM12.4472 6.89443L13.3416 6.44721L12.4472 6.89443ZM15.7889 13.5777L14.8944 14.0249L15.7889 13.5777ZM15 22C15 22.5523 15.4477 23 16 23C16.5523 23 17 22.5523 17 22H15ZM9 22V14.4721H7V22H9ZM9.10557 14.0249L12.4472 7.34164L10.6584 6.44721L7.31672 13.1305L9.10557 14.0249ZM11.5528 7.34164L14.8944 14.0249L16.6833 13.1305L13.3416 6.44721L11.5528 7.34164ZM15 14.4721V22H17V14.4721H15ZM14.8944 14.0249C14.9639 14.1638 15 14.3169 15 14.4721H17C17 14.0064 16.8916 13.5471 16.6833 13.1305L14.8944 14.0249ZM12.4472 7.34164C12.263 7.71017 11.737 7.71016 11.5528 7.34164L13.3416 6.44721C12.7889 5.34164 11.2111 5.34164 10.6584 6.44721L12.4472 7.34164ZM9 14.4721C9 14.3169 9.03615 14.1638 9.10557 14.0249L7.31672 13.1305C7.10844 13.5471 7 14.0064 7 14.4721H9ZM12 15C10.5321 15 9.31785 14.573 8.62403 14.0189L7.37597 15.5817C8.50661 16.4846 10.1967 17 12 17V15ZM15.376 14.0189C14.6821 14.573 13.4679 15 12 15V17C13.8033 17 15.4934 16.4846 16.624 15.5817L15.376 14.0189ZM22 12C22 17.5228 17.5228 22 12 22V24C18.6274 24 24 18.6274 24 12H22ZM12 22C6.47715 22 2 17.5228 2 12H0C0 18.6274 5.37258 24 12 24V22ZM2 12C2 6.47715 6.47715 2 12 2V0C5.37258 0 0 5.37258 0 12H2ZM12 2C17.5228 2 22 6.47715 22 12H24C24 5.37258 18.6274 0 12 0V2Z" fill="white"/>
</svg>
