<svg width="20" height="18" viewBox="0 0 20 18" fill="none" xmlns="http://www.w3.org/2000/svg">
<path id="Icon" d="M18 10C18.5523 10 19 9.55228 19 9C19 8.44771 18.5523 8 18 8V10ZM9 8C8.44772 8 8 8.44771 8 9C8 9.55228 8.44772 10 9 10V8ZM16.7071 5.29289C16.3166 4.90237 15.6834 4.90237 15.2929 5.29289C14.9024 5.68342 14.9024 6.31658 15.2929 6.70711L16.7071 5.29289ZM17.8686 7.86863L17.1615 8.57573L17.8686 7.86863ZM17.8686 10.1314L18.5757 10.8385L18.5757 10.8385L17.8686 10.1314ZM15.2929 11.2929C14.9024 11.6834 14.9024 12.3166 15.2929 12.7071C15.6834 13.0976 16.3166 13.0976 16.7071 12.7071L15.2929 11.2929ZM18.5368 8.69098L17.5858 9V9L18.5368 8.69098ZM18.5368 9.30901L17.5858 9L18.5368 9.30901ZM3.34314 3.34315L4.05025 4.05025L3.34314 3.34315ZM3.34315 14.6569L2.63604 15.364L3.34315 14.6569ZM12.4996 2.93527C12.9777 3.21165 13.5894 3.04807 13.8658 2.56991C14.1421 2.09175 13.9786 1.48008 13.5004 1.20371L12.4996 2.93527ZM13.5004 16.7963C13.9786 16.5199 14.1421 15.9082 13.8658 15.4301C13.5894 14.9519 12.9777 14.7884 12.4996 15.0647L13.5004 16.7963ZM18 8H9V10H18V8ZM15.2929 6.70711L17.1615 8.57573L18.5757 7.16152L16.7071 5.29289L15.2929 6.70711ZM17.1615 9.42426L15.2929 11.2929L16.7071 12.7071L18.5757 10.8385L17.1615 9.42426ZM17.1615 8.57573C17.3712 8.78541 17.4854 8.90069 17.5611 8.98987C17.6292 9.07011 17.6057 9.06139 17.5858 9L19.4879 8.38196C19.3938 8.09225 19.2342 7.87035 19.0858 7.69551C18.9449 7.52959 18.7621 7.34786 18.5757 7.16152L17.1615 8.57573ZM18.5757 10.8385C18.7621 10.6521 18.9449 10.4704 19.0858 10.3045C19.2342 10.1296 19.3938 9.90775 19.4879 9.61803L17.5858 9C17.6057 8.93861 17.6292 8.92988 17.5611 9.01013C17.4854 9.09931 17.3712 9.21459 17.1615 9.42427L18.5757 10.8385ZM17.5858 9V9L19.4879 9.61803C19.6184 9.21634 19.6184 8.78365 19.4879 8.38196L17.5858 9ZM2.63604 2.63604C-0.87868 6.15076 -0.878679 11.8492 2.63604 15.364L4.05025 13.9497C1.31658 11.2161 1.31658 6.78392 4.05025 4.05025L2.63604 2.63604ZM13.5004 1.20371C10.0588 -0.785506 5.58166 -0.309582 2.63604 2.63604L4.05025 4.05025C6.33953 1.76098 9.82224 1.3878 12.4996 2.93527L13.5004 1.20371ZM2.63604 15.364C5.58166 18.3096 10.0588 18.7855 13.5004 16.7963L12.4996 15.0647C9.82224 16.6122 6.33953 16.239 4.05025 13.9497L2.63604 15.364Z" fill="white"/>
</svg>
