<svg width="213" height="230" viewBox="0 0 213 230" fill="none" xmlns="http://www.w3.org/2000/svg">
<g id="Group 128">
<g id="Group">
<g id="Group_2">
<g id="Group_3">
<path id="Vector" d="M19.3906 227.927V224.808H3.35937V213.193H18.9115V210.021H3.35937V198.407H19.3906V195.287H0V227.927H19.3906Z" fill="#005025"/>
</g>
</g>
</g>
<g id="Group_4">
<g id="Group_5">
<g id="Group_6">
<path id="Vector_2" d="M58.2732 217.943H54.5753C53.4242 220.057 51.8409 221.781 49.8253 223.031C47.8097 224.328 45.5544 224.953 43.1534 224.953C39.5544 224.953 36.4815 223.656 33.9347 220.969C31.4399 218.422 30.2419 215.302 30.2419 211.656C30.2419 208.005 31.4399 204.886 33.9347 202.297C35.0909 201.094 36.4815 200.136 38.0649 199.417C39.6013 198.693 41.1378 198.313 42.6742 198.313C44.1586 198.313 45.4555 198.505 46.6065 198.839C50.1117 199.896 52.7524 202.005 54.5284 205.224H58.2263C56.9763 202.151 55.0076 199.656 52.2732 197.735C49.4867 195.813 46.4659 194.854 43.1534 194.854C38.5909 194.854 34.7524 196.537 31.5857 199.849C30.0961 201.386 28.9451 203.209 28.1274 205.224C27.2628 207.24 26.8826 209.401 26.8826 211.656C26.8826 216.266 28.419 220.151 31.5857 223.417C34.7524 226.776 38.5909 228.406 43.1534 228.406C46.4659 228.406 49.4867 227.448 52.3201 225.526C55.0597 223.61 57.0232 221.11 58.2732 217.943Z" fill="#005025"/>
</g>
</g>
</g>
<g id="Group_7">
<g id="Group_8">
<g id="Group_9">
<path id="Vector_3" d="M93.7954 211.511C93.7954 215.255 92.4516 218.422 89.8579 221.016C87.2172 223.656 84.0506 224.953 80.3527 224.953C76.6547 224.953 73.4881 223.656 70.8995 221.016C68.2589 218.422 66.962 215.255 66.962 211.511C66.962 207.865 68.2589 204.693 70.8995 202.057C73.4881 199.464 76.6547 198.12 80.3527 198.12C84.0506 198.12 87.2172 199.464 89.8579 202.057C92.4516 204.693 93.7954 207.865 93.7954 211.511ZM97.1547 211.511C97.1547 209.209 96.6756 207.047 95.811 204.985C94.9464 202.969 93.7433 201.193 92.2068 199.656C90.6756 198.167 88.8995 196.969 86.8787 196.104C84.8162 195.24 82.6547 194.761 80.3527 194.761C78.0506 194.761 75.8422 195.24 73.8266 196.104C71.811 196.969 70.035 198.167 68.4985 199.656C66.962 201.193 65.7589 202.969 64.8995 204.985C64.035 207.047 63.6027 209.209 63.6027 211.511C63.6027 213.813 64.035 216.021 64.8995 218.042C65.7589 220.104 66.962 221.88 68.4985 223.417C70.035 224.953 71.811 226.151 73.8266 227.016C75.8422 227.88 78.0506 228.313 80.3527 228.313C82.6547 228.313 84.8162 227.88 86.8787 227.016C88.8995 226.151 90.6756 224.953 92.2068 223.417C93.7433 221.88 94.9464 220.104 95.811 218.042C96.6756 216.021 97.1547 213.813 97.1547 211.511Z" fill="#005025"/>
</g>
</g>
</g>
<g id="Group_10">
<g id="Group_11">
<g id="Group_12">
<path id="Vector_4" d="M134.739 227.927H138.145L130.562 193.125L119.859 221.063L109.156 193.125L101.52 227.927H104.979L110.015 204.693L119.859 229.849L129.651 204.693L134.739 227.927Z" fill="#005025"/>
</g>
</g>
</g>
<g id="Group_13">
<g id="Group_14">
<g id="Group_15">
<path id="Vector_5" d="M147.312 227.927V195.287H143.952V227.927H147.312Z" fill="#005025"/>
</g>
</g>
</g>
<g id="Group_16">
<g id="Group_17">
<g id="Clip path group">
<mask id="mask0_5_215" style="mask-type:luminance" maskUnits="userSpaceOnUse" x="114" y="45" width="66" height="30">
<g id="7d1aacb8ae">
<path id="Vector_6" d="M179.777 45.0521H114.444V74.3855H179.777V45.0521Z" fill="white"/>
</g>
</mask>
<g mask="url(#mask0_5_215)">
<g id="Group_18">
<g id="Clip path group_2">
<mask id="mask1_5_215" style="mask-type:luminance" maskUnits="userSpaceOnUse" x="114" y="45" width="65" height="30">
<g id="84efc1ad02">
<path id="Vector_7" d="M114.975 45.2136H178.975V74.0105H114.975V45.2136Z" fill="white"/>
</g>
</mask>
<g mask="url(#mask1_5_215)">
<g id="Group_19">
<path id="Vector_8" d="M177.907 53.224C177.907 53.224 143.069 51.0053 129.6 57.6251C121.418 61.6355 117.048 67.4792 115.392 73.6772C115.392 73.6772 116.022 59.948 126.85 52.2761C137.673 44.599 172.829 45.4115 178.683 45.8699L177.907 53.224Z" fill="#005025"/>
</g>
</g>
</g>
</g>
</g>
</g>
</g>
</g>
<path id="Vector_9" d="M46.2771 58.0104C46.2771 58.526 46.1781 59.0208 45.9854 59.4948C45.7875 59.9688 45.5062 60.3854 45.1416 60.75C44.7771 61.1146 44.3604 61.3906 43.8864 61.5885C43.4073 61.7865 42.9125 61.8854 42.4021 61.8854C41.8864 61.8854 41.3916 61.7865 40.9177 61.5885C40.4385 61.3906 40.0219 61.1146 39.6573 60.75C39.2927 60.3854 39.0114 59.9688 38.8187 59.4948C38.6208 59.0208 38.5219 58.526 38.5219 58.0104C38.5219 57.5 38.6208 57.0052 38.8187 56.5313C39.0114 56.0573 39.2927 55.6354 39.6573 55.276C40.0219 54.9115 40.4385 54.6302 40.9177 54.4323C41.3916 54.2396 41.8864 54.1406 42.4021 54.1406C42.9125 54.1406 43.4073 54.2396 43.8864 54.4323C44.3604 54.6302 44.7771 54.9115 45.1416 55.276C45.5062 55.6354 45.7875 56.0573 45.9854 56.5313C46.1781 57.0052 46.2771 57.5 46.2771 58.0104Z" fill="#005025"/>
<path id="Vector_10" d="M120.397 28.3022C120.397 28.8178 120.298 29.3126 120.1 29.7865C119.902 30.2605 119.626 30.6772 119.261 31.0417C118.897 31.4063 118.475 31.6824 118.001 31.8803C117.527 32.0782 117.032 32.1772 116.517 32.1772C116.001 32.1772 115.506 32.0782 115.032 31.8803C114.558 31.6824 114.136 31.4063 113.777 31.0417C113.412 30.6772 113.131 30.2605 112.933 29.7865C112.735 29.3126 112.636 28.8178 112.636 28.3022C112.636 27.7917 112.735 27.297 112.933 26.823C113.131 26.349 113.412 25.9272 113.777 25.5626C114.136 25.2032 114.558 24.922 115.032 24.724C115.506 24.5313 116.001 24.4324 116.517 24.4324C117.032 24.4324 117.527 24.5313 118.001 24.724C118.475 24.922 118.897 25.2032 119.261 25.5626C119.626 25.9272 119.902 26.349 120.1 26.823C120.298 27.297 120.397 27.7917 120.397 28.3022Z" fill="#108D59"/>
<path id="Vector_11" d="M52.5529 42.8074C52.5529 43.3178 52.454 43.8126 52.2613 44.2865C52.0634 44.7605 51.7821 45.1824 51.4175 45.5417C51.0529 45.9063 50.6363 46.1876 50.1623 46.3803C49.6831 46.5782 49.1884 46.6772 48.6779 46.6772C48.1623 46.6772 47.6675 46.5782 47.1936 46.3803C46.7144 46.1876 46.2977 45.9063 45.9331 45.5417C45.5686 45.1824 45.2873 44.7605 45.0946 44.2865C44.8967 43.8126 44.7977 43.3178 44.7977 42.8074C44.7977 42.2917 44.8967 41.797 45.0946 41.323C45.2873 40.849 45.5686 40.4324 45.9331 40.0678C46.2977 39.7032 46.7144 39.422 47.1936 39.2292C47.6675 39.0313 48.1623 38.9324 48.6779 38.9324C49.1884 38.9324 49.6831 39.0313 50.1623 39.2292C50.6363 39.422 51.0529 39.7032 51.4175 40.0678C51.7821 40.4324 52.0634 40.849 52.2613 41.323C52.454 41.797 52.5529 42.2917 52.5529 42.8074Z" fill="#108D59"/>
<g id="Clip path group_3">
<mask id="mask2_5_215" style="mask-type:luminance" maskUnits="userSpaceOnUse" x="185" y="87" width="8" height="11">
<g id="90ddc8a08b">
<path id="Vector_12" d="M185.11 87.7188H192.996V97.0521H185.11V87.7188Z" fill="white"/>
</g>
</mask>
<g mask="url(#mask2_5_215)">
<g id="Group_20">
<path id="Vector_13" d="M192.892 92.8594C192.892 93.375 192.793 93.8646 192.595 94.3438C192.402 94.8177 192.121 95.2344 191.756 95.599C191.392 95.9584 190.975 96.2396 190.496 96.4375C190.022 96.6355 189.527 96.7292 189.011 96.7292C188.501 96.7292 188.006 96.6355 187.527 96.4375C187.053 96.2396 186.636 95.9584 186.272 95.599C185.907 95.2344 185.626 94.8177 185.428 94.3438C185.23 93.8646 185.136 93.375 185.136 92.8594C185.136 92.3438 185.23 91.8542 185.428 91.3802C185.626 90.9011 185.907 90.4844 186.272 90.1198C186.636 89.7605 187.053 89.4792 187.527 89.2813C188.006 89.0834 188.501 88.9896 189.011 88.9896C189.527 88.9896 190.022 89.0834 190.496 89.2813C190.975 89.4792 191.392 89.7605 191.756 90.1198C192.121 90.4844 192.402 90.9011 192.595 91.3802C192.793 91.8542 192.892 92.3438 192.892 92.8594Z" fill="#108D59"/>
</g>
</g>
</g>
<g id="Clip path group_4">
<mask id="mask3_5_215" style="mask-type:luminance" maskUnits="userSpaceOnUse" x="81" y="0" width="10" height="10">
<g id="bedb4c0314">
<path id="Vector_14" d="M81.1104 0H90.4437V9.05208H81.1104V0Z" fill="white"/>
</g>
</mask>
<g mask="url(#mask3_5_215)">
<g id="Group_21">
<path id="Vector_15" d="M89.7561 3.875C89.7561 4.38542 89.6572 4.88021 89.4593 5.35417C89.2614 5.82813 88.9801 6.25 88.6207 6.60938C88.2561 6.97396 87.8343 7.25521 87.3603 7.45313C86.8864 7.64583 86.3916 7.74479 85.8759 7.74479C85.3603 7.74479 84.8655 7.64583 84.3916 7.45313C83.9176 7.25521 83.4957 6.97396 83.1311 6.60938C82.7718 6.25 82.4905 5.82813 82.2926 5.35417C82.0947 4.88021 81.9957 4.38542 81.9957 3.875C81.9957 3.35937 82.0947 2.86458 82.2926 2.39063C82.4905 1.91667 82.7718 1.5 83.1311 1.13542C83.4957 0.770833 83.9176 0.494791 84.3916 0.296875C84.8655 0.0989577 85.3603 0 85.8759 0C86.3916 0 86.8864 0.0989577 87.3603 0.296875C87.8343 0.494791 88.2561 0.770833 88.6207 1.13542C88.9801 1.5 89.2614 1.91667 89.4593 2.39063C89.6572 2.86458 89.7561 3.35937 89.7561 3.875Z" fill="#005025"/>
</g>
</g>
</g>
<path id="Vector_16" d="M163.907 13.4844C163.907 13.9948 163.808 14.4896 163.61 14.9635C163.418 15.4375 163.136 15.8594 162.772 16.224C162.407 16.5833 161.991 16.8646 161.511 17.0625C161.037 17.2552 160.543 17.3542 160.027 17.3542C159.517 17.3542 159.022 17.2552 158.543 17.0625C158.069 16.8646 157.652 16.5833 157.287 16.224C156.923 15.8594 156.642 15.4375 156.444 14.9635C156.251 14.4896 156.152 13.9948 156.152 13.4844C156.152 12.9687 156.251 12.474 156.444 12C156.642 11.526 156.923 11.1094 157.287 10.7448C157.652 10.3802 158.069 10.1042 158.543 9.90625C159.022 9.70833 159.517 9.60938 160.027 9.60938C160.543 9.60938 161.037 9.70833 161.511 9.90625C161.991 10.1042 162.407 10.3802 162.772 10.7448C163.136 11.1094 163.418 11.526 163.61 12C163.808 12.474 163.907 12.9687 163.907 13.4844Z" fill="#005025"/>
<g id="Clip path group_5">
<mask id="mask4_5_215" style="mask-type:luminance" maskUnits="userSpaceOnUse" x="51" y="113" width="132" height="63">
<g id="df62ec02fe">
<path id="Vector_17" d="M51.777 113.052H182.444V176H51.777V113.052Z" fill="white"/>
</g>
</mask>
<g mask="url(#mask4_5_215)">
<g id="Group_22">
<path id="Vector_18" d="M55.2718 176C54.7041 176 54.1416 175.792 53.6832 175.401C52.6937 174.526 52.5895 173.01 53.4697 171.99C61.4749 162.943 68.2822 160.974 68.5999 160.865C68.777 160.797 68.9853 160.797 69.1989 160.76L118.142 159.458L120.397 158.896L172.897 130.839C176.673 128.833 178.293 124.542 176.532 121.266C174.876 118.167 170.574 117.359 166.73 119.401L141.235 132.391C140.037 132.99 138.589 132.531 137.991 131.333C137.392 130.135 137.85 128.693 139.048 128.094L164.47 115.104C170.642 111.797 177.798 113.484 180.761 118.943C183.761 124.542 181.256 131.755 175.157 135.031L122.371 163.26C122.194 163.365 122.017 163.438 121.808 163.469L119.022 164.177C118.845 164.208 118.668 164.245 118.491 164.245L69.6207 165.547C68.4905 165.969 63.2405 168.151 57.0687 175.12C56.6103 175.719 55.9384 176 55.2718 176Z" fill="#108D59"/>
</g>
</g>
</g>
<g id="Clip path group_6">
<mask id="mask5_5_215" style="mask-type:luminance" maskUnits="userSpaceOnUse" x="34" y="119" width="101" height="32">
<g id="3cf75a782d">
<path id="Vector_19" d="M34.9957 119.719H134.444V150.385H34.9957V119.719Z" fill="white"/>
</g>
</mask>
<g mask="url(#mask5_5_215)">
<g id="Group_23">
<path id="Vector_20" d="M37.7822 150.167C37.1467 150.167 36.4749 149.917 36.0165 149.391C35.0999 148.406 35.1728 146.891 36.1572 145.974L58.7613 125.245C70.5009 117.359 84.1103 121.479 84.678 121.651C90.4957 123.167 101.813 123.552 101.918 123.552H121.173C128.261 123.552 134.043 128.729 134.043 135.063C134.043 141.438 128.261 146.573 121.173 146.573H94.4436C93.1051 146.573 92.0478 145.484 92.0478 144.182C92.0478 142.88 93.1415 141.787 94.4436 141.787H121.173C125.615 141.787 129.209 138.76 129.209 135.063C129.209 131.37 125.615 128.339 121.173 128.339H101.85C101.282 128.339 89.7874 127.953 83.3394 126.229C83.1259 126.156 71.3499 122.641 61.579 129.078L39.4019 149.464C38.9801 149.953 38.3811 150.167 37.7822 150.167Z" fill="#005025"/>
</g>
</g>
</g>
<g id="Clip path group_7">
<mask id="mask6_5_215" style="mask-type:luminance" maskUnits="userSpaceOnUse" x="34" y="119" width="53" height="32">
<g id="91f363016c">
<path id="Vector_21" d="M34.9957 119.719H86.4436V150.385H34.9957V119.719Z" fill="white"/>
</g>
</mask>
<g mask="url(#mask6_5_215)">
<g id="Group_24">
<path id="Vector_22" d="M37.7822 150.167C37.1467 150.167 36.4749 149.917 36.0165 149.391C35.0999 148.406 35.1728 146.891 36.1572 145.974L58.4801 125.453C58.5842 125.385 58.6572 125.313 58.7613 125.245C70.5009 117.359 84.1155 121.479 84.678 121.651C85.9488 122.042 86.6519 123.412 86.2613 124.682C85.8759 125.948 84.5009 126.651 83.2301 126.266C83.1259 126.229 71.3499 122.708 61.579 129.151L39.4019 149.531C38.9801 149.953 38.3811 150.167 37.7822 150.167Z" fill="#108D59"/>
</g>
</g>
</g>
<path id="Vector_23" d="M105.303 118.38C104.069 118.38 103.011 117.427 102.907 116.162C100.97 93.3178 95.8915 79.9063 91.9749 72.6563C91.3394 71.4949 91.7978 70.0157 92.9644 69.3803C94.1259 68.7501 95.6103 69.2032 96.2405 70.3647C100.365 78.0053 105.694 92.0834 107.704 115.74C107.808 117.078 106.819 118.24 105.517 118.344C105.412 118.38 105.376 118.38 105.303 118.38Z" fill="#108D59"/>
<path id="Vector_24" d="M90.2146 75.0157C88.8031 75.0157 87.2875 74.7292 85.7354 74.1667C79.6 71.9532 73.9594 65.8959 71.6989 59.1042C67.3656 45.9375 70.2927 36.3282 70.4333 35.9063L71.1364 33.724L73.3604 34.2865C73.7823 34.3907 84.2198 37.1719 93.001 46.2188C98.4646 51.849 100.225 59.948 99.5583 65.4375C99.1 69.2032 97.5114 72.125 95.1156 73.6042C93.7042 74.5886 92.0114 75.0157 90.2146 75.0157ZM74.5583 39.8125C74.0635 43.1563 73.6781 49.6667 76.3187 57.625C78.0844 63.0105 82.6312 67.9375 87.3917 69.6615C88.8708 70.1928 90.9542 70.6146 92.5739 69.5938C93.7042 68.8907 94.5167 67.198 94.7614 64.948C95.2927 60.724 93.8812 54.1042 89.5427 49.6355C84.1469 44.073 77.9073 41.1146 74.5583 39.8125Z" fill="#005025"/>
<path id="Vector_25" d="M90.2145 75.0157C88.8031 75.0157 87.2874 74.7292 85.7354 74.1667C79.5999 71.9532 73.9593 65.8959 71.6989 59.1042C71.277 57.8334 71.9854 56.4636 73.251 56.073C74.5218 55.6511 75.8968 56.3594 76.2874 57.6251C78.0479 63.0105 82.5947 67.9376 87.3552 69.6615C88.8395 70.1928 90.9177 70.6146 92.5427 69.5938C93.6677 68.8907 94.4802 67.198 94.7614 64.948C95.2927 60.724 93.8812 54.1042 89.5427 49.6355C88.626 48.6823 88.626 47.1719 89.6156 46.2188C90.5635 45.3021 92.0843 45.3021 93.0322 46.2917C98.501 51.9219 100.261 60.0157 99.5947 65.5105C99.1364 69.2761 97.5479 72.198 95.152 73.6771C93.7041 74.5886 92.0114 75.0157 90.2145 75.0157Z" fill="#108D59"/>
<path id="Vector_26" d="M139.897 101.521C138.59 101.521 137.355 101.411 136.261 101.24C128.647 100.042 121.491 94.8281 117.116 87.3333C112.85 80.0469 111.829 71.2135 114.366 63.7135C116.131 58.4687 120.501 51.2864 131.293 46.8541C145.855 40.8333 180.517 45.3021 181.996 45.4791C182.699 45.5833 183.334 45.9739 183.725 46.6041C184.11 47.2031 184.183 47.9791 183.97 48.6458C183.511 49.9844 172.616 81.7708 160.027 92.8594C152.308 99.7239 145.256 101.521 139.897 101.521ZM154.704 48.5416C146.491 48.5416 138.272 49.2135 133.162 51.3229C125.933 54.2812 121.032 59.1354 118.949 65.2969C116.871 71.4948 117.751 78.8125 121.313 84.9375C124.98 91.2031 130.871 95.5364 137.074 96.5208C143.527 97.5416 150.366 95.0416 156.855 89.3021C166.412 80.8541 175.475 57.9739 178.402 49.9531C173.709 49.4219 164.188 48.5416 154.704 48.5416Z" fill="#108D59"/>
<path id="Vector_27" d="M139.928 101.521C138.907 101.521 137.923 101.448 136.897 101.307C129.527 100.323 122.652 95.7448 118.032 88.7396C117.293 87.6146 117.61 86.1354 118.704 85.3958C119.834 84.6563 121.313 84.974 122.053 86.0677C125.897 91.9115 131.537 95.7083 137.532 96.4844C143.912 97.3281 150.402 94.8646 156.855 89.1979C157.845 88.3177 159.392 88.4219 160.277 89.4115C161.157 90.3958 161.053 91.9427 160.063 92.8229C153.574 98.599 146.668 101.521 139.928 101.521Z" fill="#005025"/>
<path id="Vector_28" d="M145.464 88.1772C145.116 88.1772 144.725 88.1094 144.371 87.9324L131.011 81.2084C129.808 80.6094 129.35 79.1667 129.954 77.9688C130.553 76.7709 131.996 76.3178 133.194 76.9115L146.558 83.6355C147.756 84.2344 148.214 85.6772 147.616 86.8751C147.194 87.7188 146.35 88.1772 145.464 88.1772Z" fill="#108D59"/>
<path id="Vector_29" d="M143.209 73.2188C143.173 73.2188 143.142 73.2188 143.105 73.2188C141.761 73.1823 140.74 72.0573 140.777 70.7188L141.162 60.5834C141.199 59.2448 142.329 58.224 143.668 58.2605C145.006 58.2917 146.032 59.4219 145.996 60.7553L145.605 70.8959C145.574 72.198 144.48 73.2188 143.209 73.2188Z" fill="#005025"/>
<path id="Vector_30" d="M104.209 104.266C103.86 104.266 103.47 104.193 103.121 104.016C101.918 103.422 101.459 101.974 102.058 100.781C105.975 93.0729 115.704 85.8906 116.131 85.5729C116.162 85.5365 116.235 85.5052 116.272 85.4688L159.886 58.4011C161.017 57.6927 162.496 58.0469 163.204 59.1719C163.907 60.3021 163.553 61.7761 162.428 62.4844L118.881 89.5156C118.032 90.1511 109.569 96.5886 106.329 102.964C105.902 103.771 105.058 104.266 104.209 104.266Z" fill="#108D59"/>
<g id="Group_25">
<g id="Group_26">
<g id="Group_27">
<path id="Vector_31" d="M159.6 203.88L177.938 229.943V195.287H174.579V219.287L156.24 193.224V227.927H159.6V203.88Z" fill="#005025"/>
</g>
</g>
</g>
<g id="Group_28">
<g id="Group_29">
<g id="Group_30">
<path id="Vector_32" d="M212.208 211.61C212.208 209.255 211.729 207.094 210.864 205.078C210 203.063 208.802 201.334 207.312 199.896C205.776 198.453 204 197.349 201.984 196.537C199.922 195.719 197.713 195.287 195.411 195.287H186.864V227.927H195.411C197.713 227.927 199.922 227.542 201.984 226.729C204 225.912 205.776 224.761 207.312 223.318C208.802 221.88 210 220.198 210.864 218.183C211.729 216.167 212.208 214.005 212.208 211.61ZM208.948 211.61C208.948 215.349 207.604 218.469 205.01 220.917C202.416 223.365 199.25 224.568 195.505 224.568H190.224V198.646H195.505C199.25 198.646 202.416 199.896 205.01 202.297C207.604 204.792 208.948 207.912 208.948 211.61Z" fill="#005025"/>
</g>
</g>
</g>
</g>
</svg>
