<svg width="37" height="37" viewBox="0 0 37 37" fill="none" xmlns="http://www.w3.org/2000/svg">
<mask id="mask0_37_445" style="mask-type:alpha" maskUnits="userSpaceOnUse" x="0" y="0" width="37" height="37">
<rect x="0.180664" y="0.180664" width="36.5909" height="36.5909" rx="9.73077" fill="#D9D9D9"/>
</mask>
<g mask="url(#mask0_37_445)">
<path d="M10.8534 16.9519C7.48527 16.9519 4.75488 14.2215 4.75488 10.8534C4.75488 7.48527 7.48527 4.75488 10.8534 4.75488C14.2215 4.75488 16.9519 7.48527 16.9519 10.8534C16.9519 14.2215 14.2215 16.9519 10.8534 16.9519ZM10.8534 32.1981C7.48527 32.1981 4.75488 29.4677 4.75488 26.0996C4.75488 22.7315 7.48527 20.0011 10.8534 20.0011C14.2215 20.0011 16.9519 22.7315 16.9519 26.0996C16.9519 29.4677 14.2215 32.1981 10.8534 32.1981ZM26.0996 16.9519C22.7315 16.9519 20.0011 14.2215 20.0011 10.8534C20.0011 7.48527 22.7315 4.75488 26.0996 4.75488C29.4677 4.75488 32.1981 7.48527 32.1981 10.8534C32.1981 14.2215 29.4677 16.9519 26.0996 16.9519ZM26.0996 32.1981C22.7315 32.1981 20.0011 29.4677 20.0011 26.0996C20.0011 22.7315 22.7315 20.0011 26.0996 20.0011C29.4677 20.0011 32.1981 22.7315 32.1981 26.0996C32.1981 29.4677 29.4677 32.1981 26.0996 32.1981ZM7.80413 10.8534C7.80413 12.5374 9.16932 13.9026 10.8534 13.9026C12.5374 13.9026 13.9026 12.5374 13.9026 10.8534C13.9026 9.16932 12.5374 7.80413 10.8534 7.80413C9.16932 7.80413 7.80413 9.16932 7.80413 10.8534ZM23.0503 10.8534C23.0503 12.5374 24.4155 13.9026 26.0996 13.9026C27.7836 13.9026 29.1488 12.5374 29.1488 10.8534C29.1488 9.16932 27.7836 7.80413 26.0996 7.80413C24.4155 7.80413 23.0503 9.16932 23.0503 10.8534ZM23.0503 26.0996C23.0503 27.7836 24.4155 29.1488 26.0996 29.1488C27.7836 29.1488 29.1488 27.7836 29.1488 26.0996C29.1488 24.4155 27.7836 23.0503 26.0996 23.0503C24.4155 23.0503 23.0503 24.4155 23.0503 26.0996ZM7.80413 26.0996C7.80413 27.7836 9.16932 29.1488 10.8534 29.1488C12.5374 29.1488 13.9026 27.7836 13.9026 26.0996C13.9026 24.4155 12.5374 23.0503 10.8534 23.0503C9.16932 23.0503 7.80413 24.4155 7.80413 26.0996Z" fill="white"/>
</g>
</svg>
